<svg xmlns="http://www.w3.org/2000/svg" viewBox="0 0 88 88"><defs><style>.cls-1{fill:#666;}.cls-2{fill:#676767;}.cls-3{fill:#6c6b6b;}.cls-4{fill:#6c6c6c;}.cls-5{fill:#595959;}.cls-6{fill:#555;}.cls-7{fill:#636363;}.cls-8{fill:#c9c9c9;}.cls-9{fill:#767575;}.cls-10{fill:#585758;}.cls-11{fill:#c0bfbf;}.cls-12{fill:#908f8f;}.cls-13{fill:#939394;}.cls-14{fill:#a0a0a0;}.cls-15{fill:#d5d5d5;}.cls-16{fill:#d9d8d8;}.cls-17{fill:#c1c1c0;}.cls-18{fill:#fdfdfd;}.cls-19{fill:#faf9f9;}.cls-20{fill:#5b5a5a;}.cls-21{fill:#f8f7f8;}.cls-22{fill:#f9f9f9;}.cls-23{fill:#595858;}.cls-24{fill:#f6f5f5;}.cls-25{fill:#7a7a7a;}.cls-26{fill:#f0efef;}.cls-27{fill:#efeeef;}.cls-28{fill:#616161;}.cls-29{fill:#5c5b5c;}.cls-30{fill:#575757;}.cls-31{fill:#545353;}.cls-32{fill:#575656;}.cls-33{fill:#565656;}.cls-34{fill:#f9f8f8;}.cls-35{fill:#585858;}.cls-36{fill:#d6d5d5;}.cls-37{fill:#565454;}.cls-38{fill:#626262;}.cls-39{fill:#545453;}.cls-40{fill:#5a5a5a;}.cls-41{fill:#4b4b4b;}.cls-42{fill:#cecdcd;}.cls-43{fill:#6d6d6d;}.cls-44{fill:#565758;}.cls-45{fill:none;}</style></defs><title>Asset 7</title><g id="Layer_2" data-name="Layer 2"><g id="Layer_1-2" data-name="Layer 1"><path class="cls-1" d="M30.17,62.09a19.06,19.06,0,0,1-9.59-11,4.72,4.72,0,0,1-.37-1.13,6.06,6.06,0,0,0-.39-1.71L19.73,48a.8.8,0,0,1-.11-.42c.24-1.21-.22-2.49.42-3.65,4,0,8.05,0,12.08,0,8.32-.08,16.64.11,25,0,.43,0,.85,0,1.14.37A15.4,15.4,0,0,1,58.09,48l-.36,2.16c-.33.55-.45,1.19-.73,1.76a4.75,4.75,0,0,1-1.63,2.79c-.35.09-.43.74-.89.52s-.32-.68-.19-1c.32-.85-.45-1.77.2-2.59.15-.2.34-.36.49-.56a.79.79,0,0,0,.06-1c-.2-.23-.45-.42-.49-.75.39-.61-.34-1.12-.13-1.72.59-.46,1.83.49,2-.92.17-.44.32-.87-.28-1.12-4.13-.12-8.25,0-12.37,0-7.26,0-14.52,0-21.77,0-1,.35-.64.91-.24,1.49.24.57.67.55,1.17.4A14.78,14.78,0,0,1,27.35,47a10.76,10.76,0,0,1,8,3.53,5,5,0,0,0,7,.4,1.42,1.42,0,0,1,.5-.25c.73.14.67.74.71,1.26,0,.34-.22.71.12,1,.18.17.39.33.35.63a3.28,3.28,0,0,1-1.22,1.23,5.23,5.23,0,0,1-1,0c-2.9-.54-5.71-.47-8.18,1.38-1.25.93-2.48,1.94-2.71,3.7,1.7-1.37,2.87-3.42,5.12-4a9.9,9.9,0,0,1,6.59.28c.44.51,1.4.49,1.43,1.42a1.5,1.5,0,0,1-1.42,1c-1.37-.22-2.64-.91-4.11-.73a5.72,5.72,0,0,0-4.37,2.47c-.18.27-.42.6-.09.87s.57-.08.79-.32c2.61-2.81,5.63-2.85,8.23-.11.25.26.44.64,1,.4,0-1-1.26-1.48-1.29-2.5.76-.46,1.58.17,2.36-.13.52.06.7.51,1,.84.37.54.76,1,1.32.2.11-.79,1.26-.84,1.22-1.74.72-.38.69.84,1.34.62.74.07,1.56-.25,2.16.45a17.43,17.43,0,0,1-9.29,4.84,7.31,7.31,0,0,1-1.41.35c-2.17-.13-4.37.41-6.5-.37-1.19,0-2.17-.81-3.33-.91C31.18,62.53,30.63,62.39,30.17,62.09Z"/><path class="cls-2" d="M26.49,31.91a8.63,8.63,0,0,1,3.69-2.86c1.56-.68,3.18-.33,4.79-.25,1.73-1.86,3.65-3.24,6.4-3.11a7,7,0,0,1,5.48,2.85,2.33,2.33,0,0,0,1.66,1,6.88,6.88,0,0,1,5.87,5.15,1.62,1.62,0,0,0,1,1,7,7,0,0,1,3.3,3.43,5,5,0,0,1,.54,3.4c-1,.77-1.53.49-1.66-.7a5.41,5.41,0,0,0-3.62-4.81A1.93,1.93,0,0,1,52.64,35a7.7,7.7,0,0,1-.46-.92,5.7,5.7,0,0,0-2.84-2.52,1.68,1.68,0,0,1-.5-.41A8.4,8.4,0,0,0,46.65,31l-.14.09a9.09,9.09,0,0,0-4-3.66c-.86-.45-1.8-.08-2.69-.22a.16.16,0,0,0,0,.11s.06.07.09.1c-1.41.72-2.81,1.42-3.58,3-.56,1.1-1.47.43-2.21.23a5.16,5.16,0,0,0-6.1,2.7c-.35.4-.13,1-.53,1.4,0,1.36-.53,1.93-2.07,2.12-2.27.28-4.11,2-4.48,5-.15,1.21-.38,1.32-1.41.83.37-.56.08-1.18.14-1.43a2.32,2.32,0,0,1-.15,1.42c-.75-.27-.41-.86-.33-1.3a7.41,7.41,0,0,1,6-6.38c.31-.19.3-.58.52-.83l.07-.78A2.43,2.43,0,0,1,26.49,31.91Z"/><path class="cls-3" d="M69.59,36.41c0,3.55-.06,7.11-.07,10.66q0,8,0,16c0,.58,0,1.19-.62,1.42-.39.14-1,.3-1-.48q.09-.25.15-.5c.12-8.18,0-16.35,0-24.53,0-2.94.07-5.89,0-8.83q-.06-.25-.15-.5c0-.67.49-.6.88-.52.6.12.76.6.76,1.16,0,1.67,0,3.34.06,5A.78.78,0,0,1,69.59,36.41Z"/><path class="cls-4" d="M64.84,29.31c.49.29.46.76.46,1.24q0,16.25,0,32.5c0,1.14-.4,1.69-1.58,1.5a.52.52,0,0,1-.15-.6,1.87,1.87,0,0,0,.27-.9c0-10.18,0-20.35,0-30.52,0-.71-.38-1.64.67-2.05a2.43,2.43,0,0,1,.12,1.24q0,15.26,0,30.53c0,.37.13.77-.13,1.12.21,0,.16-.12.16-.26,0-10.18,0-20.35,0-30.53a20,20,0,0,0-.13-2.8A.9.9,0,0,1,64.84,29.31Z"/><path class="cls-5" d="M52.16,58.94l-2.26-.22c.12-.77.79-1.11,1.24-1.62s.77-.72.43-1.32c-.12-.83-.32-1.7.92-1.85,1.14.18,1.18.16,1-.57a6.2,6.2,0,0,0-1-.4A5.46,5.46,0,0,0,50,53l-.39.09a12.14,12.14,0,0,0-1.93.58c-.75.1-1.56.42-2.07-.5a.61.61,0,0,1,.12-.59.59.59,0,0,1,.35-.17c.6.22,1.15.34,1.35-.54a1.49,1.49,0,0,1,.87-1,2.34,2.34,0,0,1,.62-.16,9.85,9.85,0,0,1,5.06.06.93.93,0,0,1,.69.86c-.37,1.13.42,2.32-.42,3.62l1.34-.62a3.26,3.26,0,0,1-.3.35s.3-.46.34-.43A9,9,0,0,1,54.91,56a6.66,6.66,0,0,1-.59.88A12.35,12.35,0,0,1,52.16,58.94Z"/><path class="cls-6" d="M68.19,64h-.32a1.59,1.59,0,0,1-.16-1.08q0-16.17,0-32.34a1.35,1.35,0,0,1,.16-.94h.32a1.94,1.94,0,0,1,.13,1.1q0,16.07,0,32.15A1.93,1.93,0,0,1,68.19,64Z"/><path class="cls-7" d="M63.67,29.65l.07-.53c.37.05.79-.19,1.1.19l-.05.38c-.24.22,0,.6-.26.81-.48.46-.27,1.06-.27,1.6q0,15.81,0,31.62c-.9-.31-.53-1.09-.53-1.66,0-8,0-16.09,0-24.14C63.68,35.17,63.72,32.41,63.67,29.65Z"/><path class="cls-8" d="M35,28.8c-.55.6-1.08-.06-1.63,0a29,29,0,0,0-3.16.3C31.72,28.08,33.34,28.47,35,28.8Z"/><path class="cls-9" d="M58.1,44.19c.36.07.45.36.52.67A16.9,16.9,0,0,1,58.09,48Q58.1,46.11,58.1,44.19Z"/><path class="cls-10" d="M39.84,27.45c-.08-.12-.61-.24-.28-.29a19.37,19.37,0,0,1,3.08,0l-.16.32Z"/><path class="cls-11" d="M59.19,42.62a12.94,12.94,0,0,0-.54-3.4A3.11,3.11,0,0,1,59.19,42.62Z"/><path class="cls-12" d="M49,31.09l.31.51-2.83-.48a.25.25,0,0,1,0-.2A8.12,8.12,0,0,1,49,31.09Z"/><path class="cls-13" d="M19.81,48.23a2,2,0,0,1,.5,1.72q-.16.17-.21-.06C20,49.34,19.65,48.83,19.81,48.23Z"/><path class="cls-14" d="M57,52a2.35,2.35,0,0,1,.73-1.76A2.43,2.43,0,0,1,57,52Z"/><path class="cls-15" d="M30.17,62.09a2.19,2.19,0,0,1,1.46.77C31.07,62.74,30.42,62.79,30.17,62.09Z"/><path class="cls-15" d="M41.72,64.25V64a1.66,1.66,0,0,1,1.15-.18A1,1,0,0,1,41.72,64.25Z"/><path class="cls-8" d="M20.1,49.89l.21.06a1.91,1.91,0,0,1,.26,1.12A1,1,0,0,1,20.1,49.89Z"/><path class="cls-16" d="M25.63,34.15c0,.39.18.88-.52.83C25.13,34.61,25.11,34.21,25.63,34.15Z"/><path class="cls-17" d="M52.18,34.12a.86.86,0,0,1,.46.92C52.11,34.93,52.14,34.53,52.18,34.12Z"/><path class="cls-18" d="M43.11,50.71c-1.1,1.85-2.86,1.63-4.66,1.7A3.67,3.67,0,0,1,35.16,51c-3.32-3.77-7.59-4.49-12.21-3.14-1.35.4-1.54.09-1.55-1-.38-1.12.16-1.43,1.18-1.42,2.58,0,5.16,0,7.74,0H55.24c1.58,0,1.59,0,1.39,1.4-.06,2.07-1.35.94-2.24.87l-.23,0a43,43,0,0,0-7.95-.11C44,47.66,44,47.82,43.73,50A.85.85,0,0,1,43.11,50.71Z"/><path class="cls-19" d="M42.54,56.42c-4.19-1.63-8.45-.49-10.76,3.6-.22.4-.43.86-1.06.43s-.53-.72-.26-1.28a9.65,9.65,0,0,1,10.29-4.92c.41.1.82.17,1.23.25.44.41,1.13.29,1.54.75a1.17,1.17,0,0,1,.14.4C43.65,56.43,43.33,56.79,42.54,56.42Z"/><path class="cls-20" d="M43.11,50.71l.29-.54A6.08,6.08,0,0,1,48,47.43a14.54,14.54,0,0,1,6.37.2l0,.07c.56.51,1,1,.21,1.72a1.2,1.2,0,0,1-.83.28,3.47,3.47,0,0,1-.88-.1,9.54,9.54,0,0,0-3.42,0,5.49,5.49,0,0,0-3.6,1.6,6.21,6.21,0,0,0-2.36,2.08c-.53-.26-.61-.59-.28-1.1S43,51.21,43.11,50.71Z"/><path class="cls-21" d="M42.86,58.65c.45.58.91,1.16,1.34,1.75.24.33.86.68.23,1.12a.92.92,0,0,1-1.49-.26,4.61,4.61,0,0,0-5.85-1.8A3.61,3.61,0,0,0,35,61.26c-.42.91-1,.55-1.46.27s-.15-.78.11-1.15c2.09-3,5.1-3.72,8.84-2C42.64,58.46,42.81,58.48,42.86,58.65Z"/><path class="cls-22" d="M26.47,49a9.62,9.62,0,0,1,7.35,3.11c.27.29,1,.65.33,1.22a1,1,0,0,1-1.58-.17c-2.58-2.75-5.71-3-9.08-1.88-.6.21-.88.16-1.09-.32a.77.77,0,0,1,.42-1.15A10.13,10.13,0,0,1,26.47,49Z"/><path class="cls-23" d="M45.59,53c.62.66,1.39.34,2.11.34a.83.83,0,0,1-.23.62c-.2.29-.76.43-.58.85S47.63,55,48,55c.86.2.91,1,1.19,1.63,0,.47-.34.78-.46,1.18.25,1-1,1.11-1.06,1.91-.42-.21-.52-.7-.82-1-.83-1.49-2.35-2.29-3.45-3.5h0c-.21-.16-.48-.27-.57-.56.36-.43.51-1.08,1.2-1.17a.46.46,0,0,1,.31,0,.39.39,0,0,0,.52-.14C45.08,53.18,45.26,52.95,45.59,53Z"/><path class="cls-24" d="M26.84,52.38a7,7,0,0,1,4.35,1.84c.34.3.67.65.17,1-.32.22-.58.83-1.23.19a4.63,4.63,0,0,0-5.16-1c-.76.28-1-.2-1.22-.73s.32-.79.75-.86A6.09,6.09,0,0,1,26.84,52.38Z"/><path class="cls-24" d="M53.05,49.33l.76.08c.25.31.7.22,1,.49.31.43.26,1,.45,1.43-.06.34-.37.16-.55.26L54.12,51a8.22,8.22,0,0,0-5.35,0l-.52.09c-.77.45-1.25,1.35-2.25,1.44l0,0c-.89-.34-.48-1-.36-1.55a4.5,4.5,0,0,1,3.64-1.61A14.57,14.57,0,0,1,53.05,49.33Z"/><path class="cls-25" d="M56.62,46.83c0-.84-.27-1.18-1.23-1.18q-16.42.06-32.83,0c-1,0-1.22.36-1.16,1.19-.73-.37-.44-.91-.22-1.43a2.49,2.49,0,0,1,1.24-.12H55.7a2.06,2.06,0,0,1,1.23.14C56.85,45.9,57.13,46.45,56.62,46.83Z"/><path class="cls-23" d="M56.93,45.43l-35.75,0c.42-.44,1-.26,1.46-.26q16.42,0,32.83,0C56,45.15,56.52,45,56.93,45.43Z"/><path class="cls-24" d="M43.42,55.27a7.2,7.2,0,0,1,3.66,3.38c-.12.14-.31.31-.45.24-.78-.38-.46.41-.68.62l-.83-.89a1.19,1.19,0,0,1-1-1.13c-.33-.61-1.2-.46-1.54-1.06C43.42,56.49,43.47,55.92,43.42,55.27Z"/><path class="cls-26" d="M26.87,55.74A3.05,3.05,0,0,1,29.14,57c.36.52,0,.89-.18,1.28-.2.57-.65.6-1.08.22s-1-1-1.59-1.52c-.31-.28-.79-.48-.52-1S26.43,55.78,26.87,55.74Z"/><path class="cls-24" d="M48.76,57.87c-.28-.4-.11-.69.23-.93.61-1.66,1.36-1.95,2.88-1.1.66.22.48.52.11.88-.69.66-1.38,1.33-2.07,2C49.06,59.05,49.24,58,48.76,57.87Z"/><path class="cls-24" d="M37.58,62.55c-.22-.3-.85,0-.86-.52s.4-.6.71-.78a2.84,2.84,0,0,1,3.48.31c.15.16.39.3.31.58s-.36.23-.58.26a15.73,15.73,0,0,0-2.92.17Z"/><path class="cls-24" d="M45.62,50.94c.3.47-.1,1.11.36,1.55l-.38.51a.78.78,0,0,0-.51.55.57.57,0,0,1-.83.06.2.2,0,0,0-.2-.07l-.55-.27C43.5,51.84,44.84,51.64,45.62,50.94Z"/><path class="cls-27" d="M45.95,59.51c-.34-1.24.61-.76,1.14-.86.51.21.54.68.62,1.12,0,.68-.67.78-1.05.76S46,60,45.95,59.51Z"/><path class="cls-28" d="M41.44,53.8H36.7c.16-.45.83,0,1-.55L36.4,53c.66-.18,1.29-.52,1.82.36.31.52,1,.2,1.59.24s1.1,0,1.65,0Z"/><path class="cls-29" d="M44.08,57.48c.35.38.88.58,1,1.13-.74.86-1.51.05-2.26,0a.31.31,0,0,1-.35-.26C43.34,58.63,43.37,57.48,44.08,57.48Z"/><path class="cls-30" d="M24.65,48.6h4.11v.13H24.6Z"/><path class="cls-31" d="M19.82,47.66c0-1.12-.46-2.24,0-3.36A4.56,4.56,0,0,1,19.82,47.66Z"/><path class="cls-32" d="M37.58,62.55a.1.1,0,0,1,.14,0h3.44v.25H37l0-.13Z"/><path class="cls-33" d="M37.13,57.06h3.72v.15H37.17Z"/><path class="cls-32" d="M28.44,52.09h-3.3V52h3.31Z"/><path class="cls-34" d="M55.23,51.33c-.64-.28-.56-.84-.53-1.38a.38.38,0,0,1,.56,0C56.09,50.4,55.58,50.86,55.23,51.33Z"/><path class="cls-35" d="M25.43,55.35h2.46v.11H25.43Z"/><path class="cls-30" d="M40,60.55H37.87v-.12H40Z"/><path class="cls-24" d="M55.26,49.91l-.57,0c-.27-.21-1.06.41-.88-.54h.77Z"/><path class="cls-36" d="M42.86,54.7c.23.15.49.26.57.56-.52-.17-1.19-.08-1.43-.77Z"/><path class="cls-30" d="M49,31.09l-2.5-.17A6.09,6.09,0,0,1,49,30.86s0,.07,0,.11A.39.39,0,0,1,49,31.09Z"/><path class="cls-31" d="M19.45,42.66l.12-2c.17.7.45,1.4-.11,2Z"/><path class="cls-37" d="M69,30V63.68h-.14V30Z"/><path class="cls-38" d="M68.19,64q0-17.17,0-34.34c.46.42.27,1,.27,1.46q0,15.71,0,31.43C68.46,63,68.65,63.59,68.19,64Z"/><path class="cls-39" d="M63.67,29.65c.24,0,.39.11.38.44q-.06,16-.07,32c0,.54-.21,1.13.26,1.6a.61.61,0,0,1-.58.29c-.23-.29-.15-.63-.15-.95q0-16.16,0-32.33C63.51,30.37,63.41,30,63.67,29.65Z"/><path class="cls-39" d="M64.53,30.51c0-.29-.07-.62.26-.81q0,17,0,34h-.26Z"/><path class="cls-40" d="M51.86,55.84A2.28,2.28,0,0,0,49,56.94c-.44-.51-.33-1.36-1.07-1.68,0-.71.37-1,1-1,.2.06.27.35.52.33-.11-.11-.25-.19-.28-.36a.55.55,0,0,1,.22-.54,10.32,10.32,0,0,1,3.25,0,.29.29,0,0,1,.05.4C51.41,54.21,51.71,55.07,51.86,55.84Z"/><path class="cls-24" d="M47.92,55.25c-.44.37-.86.48-1.3,0s.06-.82.3-1.14a6.18,6.18,0,0,1,.79-.74c.65-.14,1.15-.78,1.9-.6.24.2.63.3.59.69s-.69.08-.84.48C49.35,54.06,48.19,54.83,47.92,55.25Z"/><line class="cls-24" x1="49.24" y1="55.32" x2="54.78" y2="56.85"/><path class="cls-24" d="M49.36,53.9c.23-.36.92-.62.25-1.17a.14.14,0,0,1,.19,0,8.55,8.55,0,0,1,3,0l1.07.36c.16.93,0,1-1.11.78A11.22,11.22,0,0,1,49.36,53.9Z"/><path class="cls-40" d="M46,52.53a7.23,7.23,0,0,1,2.25-1.44c-.21.33-.54.55-.62,1C47.44,53.31,47,53.4,46,52.53Z"/><path class="cls-24" d="M48.77,51c1.34-.79,4.53-.78,5.35,0A11.29,11.29,0,0,0,48.77,51Z"/><path class="cls-24" d="M52.76,52.72l-3,0A3.15,3.15,0,0,1,52.76,52.72Z"/><path class="cls-41" d="M53.5,48.73H49.07v-.14h4.4Z"/><path class="cls-42" d="M53.05,49.33H49.26A5.05,5.05,0,0,1,53.05,49.33Z"/><path class="cls-43" d="M44.26,53.61l.83-.06c0,.29-.06.56-.45.54S44.3,53.83,44.26,53.61Z"/><path class="cls-44" d="M48.67,54.58a.43.43,0,0,0,.17-.18c.26-.08.36-.5.68-.38s.14.33,0,.47S49,55.12,48.67,54.58Z"/><line class="cls-45" x1="58.71" y1="59.41" x2="58.75" y2="59.41"/><rect class="cls-45" width="88" height="88"/></g></g></svg>