<svg xmlns="http://www.w3.org/2000/svg" viewBox="0 0 88 88"><defs><style>.cls-1{fill:#666;}.cls-2{fill:#656666;}.cls-3{fill:#636363;}.cls-4{fill:#575757;}.cls-5{fill:#666766;}.cls-6{fill:#8f908f;}.cls-7{fill:#919091;}.cls-8{fill:#9c9c9c;}.cls-9{fill:#c3c2c3;}.cls-10{fill:#d2d2d2;}.cls-11{fill:#faf8f8;}.cls-12{fill:#fff;}.cls-13{fill:#fefefe;}.cls-14{fill:#595858;}.cls-15{fill:#575656;}.cls-16{fill:#919191;}.cls-17{fill:#575657;}.cls-18{fill:#c0bfbf;}.cls-19{fill:#e1e1e1;}.cls-20{fill:#cacaca;}.cls-21{fill:#b9b8b9;}.cls-22{fill:#e8e7e8;}.cls-23{fill:#fffefe;}.cls-24{fill:#585757;}.cls-25{fill:#9d9e9e;}.cls-26{fill:#cac9c9;}.cls-27{fill:#cecdcd;}.cls-28{fill:none;}</style></defs><title>Asset 9</title><g id="Layer_2" data-name="Layer 2"><g id="Layer_1-2" data-name="Layer 1"><path class="cls-1" d="M36.23,33.87c.59,2,2.11,3.45,2.92,5.32.42,1,.91,1.88,1.37,2.82.36.53.41,1.21.78,1.74a3.38,3.38,0,0,0,.56,1.67,4.06,4.06,0,0,1,.69,2.9c0,2.13.41,4.29-.34,6.39l-.07,0c-.26.59-.49,1.19-.75,1.78l-.08.72c-.78,1.85-1.75,3.53-3.86,4.15-3.47-.06-6.93-.13-10.39,0A3.69,3.69,0,0,1,23.58,60C19.17,54.62,19.79,48.77,22,42.79a43.33,43.33,0,0,1,3.92-7.42,8.56,8.56,0,0,0,.9-1.52,1.39,1.39,0,0,1,.56-.44,6.83,6.83,0,0,0,.08-3.1c-.35-.11-.26-.48-.42-.69a17.65,17.65,0,0,0-1.84-4.19c-.59-1.09-.34-1.54.89-1.54q5.56,0,11.11,0c1.23,0,1.44.41.88,1.55l-1.22,2.48c-.26.44-.25,1-.52,1.42a1.58,1.58,0,0,0-.08.26c-.16.2,0,.59-.42.65a13.3,13.3,0,0,0-.06,3.14A.67.67,0,0,1,36.23,33.87Z"/><path class="cls-2" d="M66.71,51.87a1.31,1.31,0,0,0-.1.26,16.75,16.75,0,0,0-.52,1.69,15.88,15.88,0,0,1-2.78,5.71,3.14,3.14,0,0,1-1.71,1.34c-3.09,0-6.19,0-9.28,0-2-1-2.85-2.86-3.68-4.76-.41-.95,0-1.45.92-1.6.77,0,.84.72,1.2,1.15A2.61,2.61,0,0,1,51,56,9.55,9.55,0,0,0,52.13,58a2.57,2.57,0,0,0,2.14,1.14c1.82,0,3.64,0,5.47,0a1.86,1.86,0,0,0,1.5-.61A14.5,14.5,0,0,0,64,53.74a4.51,4.51,0,0,0,.6-2.51c.07-2.3.07-2.31-2.2-2.31-4.16,0-8.32,0-12.48.14,2.49.14,5,.12,7.48.13a16.13,16.13,0,0,1,2.38.07c.65.1,1.18.39,1.22,1.13s-.5,1.17-1.22,1.27a27.26,27.26,0,0,1-3.65.08c-1.78,0-3.56,0-5.33,0-.55,0-1.22-.23-1.47.58s-.34,1.22-.63,1.45a1,1,0,0,1-.92.11,5.73,5.73,0,0,1-.46-1.76l-.22-1.66a3,3,0,0,0-.34-2.59c.06-.88.55-1.16,1.4-1.16,5.91,0,11.82,0,17.73,0,.9,0,1.25.36,1.24,1.25,0,1.07,0,2.14-.16,3.21A1.32,1.32,0,0,1,66.71,51.87Z"/><path class="cls-3" d="M61.4,63.64c-2.64-.28-5.28-.08-7.92-.12A2.38,2.38,0,0,1,51.8,63c0-.88.5-1.17,1.36-1.16,2.51,0,5,0,7.54,0,.48,0,1,0,1.21.47S61.72,63.28,61.4,63.64Z"/><path class="cls-4" d="M52.32,60.87c.37-.42.86-.26,1.31-.27q3.34,0,6.67,0c.44,0,.94-.15,1.3.27A46.38,46.38,0,0,1,52.32,60.87Z"/><path class="cls-5" d="M47.54,53.42a4.84,4.84,0,0,1,2.62-2l.14,0a.52.52,0,0,0-.37.07c-.26.19-.21.69,0,2,.07.41.16.91.26,1.49a2.79,2.79,0,0,0-1.52.45,1,1,0,0,0-.08.27h0a1.08,1.08,0,0,0,0,.47q-.19-.54-.41-1.11C48,54.44,47.77,53.91,47.54,53.42Z"/><path class="cls-6" d="M27,33.87l0-.57c.64-1.22-.06-2.44,0-3.67l.51.59a7,7,0,0,1,0,3.33Z"/><path class="cls-7" d="M35.73,30.23l.5-.6a11.65,11.65,0,0,0,0,4.24l-.49-.32A7,7,0,0,1,35.73,30.23Z"/><path class="cls-6" d="M41.4,56.45c.12-.65.12-1.34.75-1.78A2.21,2.21,0,0,1,41.4,56.45Z"/><path class="cls-8" d="M66.09,53.82c0-.61-.12-1.27.52-1.69A2.37,2.37,0,0,1,66.09,53.82Z"/><path class="cls-9" d="M41.3,43.74A2.57,2.57,0,0,1,40.53,42,2.23,2.23,0,0,1,41.3,43.74Z"/><path class="cls-10" d="M36.31,29.36a1.77,1.77,0,0,1,.52-1.42C36.89,28.5,36.89,29,36.31,29.36Z"/><path class="cls-11" d="M66.72,51.32l.51-.59c0,.44.22,1-.52,1.15Z"/><path class="cls-11" d="M66.92,46.56l-.26-.08c.07-.22-.14-.58.29-.61.11,0,.23.12.34.19Z"/><path class="cls-12" d="M40.55,53.57a1.64,1.64,0,0,1-.09.27c-.34.49-.31,1.11-.55,1.64a23.89,23.89,0,0,1-1.28,2.29A3.28,3.28,0,0,1,35.5,59.4a38,38,0,0,0-6.88,0c-2.81.32-4-1.3-5.07-3.4-.08-.17-.14-.35-.21-.52-.28-.42-.1-1-.52-1.38a16,16,0,0,1,.83-9.55c.37-.53.43-1.2.77-1.74a21.6,21.6,0,0,1,3.41-6.15c.82-1.16,1.05-1.18,2.2-.09,2.85,2.68,6,5,9.07,7.4a1.12,1.12,0,0,1,.51.6l.28.87c.31.52.15,1.18.53,1.68l.11.8A12.86,12.86,0,0,1,40.91,52,5.76,5.76,0,0,1,40.55,53.57Z"/><path class="cls-13" d="M28.71,28.79c-.33-1-1.42-2.2-1-2.92s2-.2,3-.23c1.31,0,2.62,0,3.93,0,.31,0,.87-.23.88.32s-.29.92-1,.87c-.93-.06-1.87,0-2.8,0-.62,0-1,.2-1,.84s.38.88,1,.87c.88,0,2-.28,2.58.16s-.15,1.61-.2,2.48A10.52,10.52,0,0,0,36.35,38a13.43,13.43,0,0,1,1.93,3.63c.34.93,0,1.1-.85.8-1.31-.48-2.18-1.58-3.25-2.38a52.13,52.13,0,0,1-4.49-3.78A2.3,2.3,0,0,1,29,34.16,11.63,11.63,0,0,0,28.71,28.79Z"/><path class="cls-14" d="M35.37,25.33h-7.8V25.2h7.77Z"/><path class="cls-15" d="M22,53.55V48.27h.12v5.28Z"/><path class="cls-16" d="M40.78,52.15l-.25-4.23c.94,1.32.4,2.81.49,4.23C40.94,52.29,40.86,52.28,40.78,52.15Z"/><path class="cls-17" d="M35.73,30.23q0,1.66,0,3.32c-.62-1.17-.26-2.4-.2-3.61,0,0,.09,0,.1,0A2.56,2.56,0,0,1,35.73,30.23Z"/><path class="cls-4" d="M27.52,33.55q0-1.67,0-3.33c.66,1.07.2,2.23.23,3.35,0,0-.07,0-.11,0A.41.41,0,0,1,27.52,33.55Z"/><path class="cls-18" d="M39.11,44.26l-.27-1.43a2.21,2.21,0,0,1,.77,1.74Z"/><path class="cls-16" d="M40.78,52.15H41c0,.53.12,1.09-.47,1.42A2.16,2.16,0,0,1,40.78,52.15Z"/><path class="cls-19" d="M39.92,55.48c0-.6-.15-1.26.55-1.64A2.3,2.3,0,0,1,39.92,55.48Z"/><path class="cls-20" d="M24.41,42.82c-.12.64-.15,1.32-.77,1.74A2.38,2.38,0,0,1,24.41,42.82Z"/><path class="cls-21" d="M40.42,47.12c-.63-.42-.49-1.08-.53-1.68A2.64,2.64,0,0,1,40.42,47.12Z"/><path class="cls-22" d="M22.82,54.11c.81.22.43.89.52,1.38A1.93,1.93,0,0,1,22.82,54.11Z"/><path class="cls-23" d="M50.36,51.36c2.9,0,5.81,0,8.71-.06.67,0,1.69.37,1.67-.87s-1-.79-1.6-.8c-3,0-6,0-9,0-.52,0-1.42.4-1.46-.55s.88-.59,1.38-.59c4.59,0,9.18,0,13.77,0,1.13,0,1.73.14,1.26,1.46a7,7,0,0,0-.18,1.67,16.58,16.58,0,0,1-.74,2.32,11.09,11.09,0,0,1-2.59,4.76,3.8,3.8,0,0,1-2.49.72c-5,0-5,0-8.49-3.52v0C49.77,54.39,50.27,52.86,50.36,51.36Z"/><path class="cls-24" d="M49,48H65v.13H49Z"/><path class="cls-5" d="M47.24,51.46c-.11-.63-.21-1.28-.3-2s-.13-1.13-.18-1.67a1.37,1.37,0,0,1,1,.67,1.36,1.36,0,0,1-.13.95A8,8,0,0,0,47.24,51.46Z"/><path class="cls-25" d="M64.19,53.86a5.21,5.21,0,0,1,.74-2.32A3,3,0,0,1,64.19,53.86Z"/><path class="cls-3" d="M24.78,63v-.67a2.22,2.22,0,0,1,1.41-.48q5.47,0,10.94,0c.63,0,1.18.09,1.19.81s-.58.82-1.19.81c-3.65,0-7.29,0-10.94,0A2.25,2.25,0,0,1,24.78,63Z"/><path class="cls-12" d="M27.83,61.67c.06-.41.34-.51.71-.51h6.73c.37,0,.65.1.71.51Z"/><path class="cls-1" d="M26.91,47.34c1-.75,1.87,0,2.72.33s1.12.18,1.08-.71a17.61,17.61,0,0,1,0-2,.83.83,0,0,1,.92-.85.82.82,0,0,1,.82.93c0,.65,0,1.31,0,2s.25.91,1,.66,1.8-1.15,2.85-.36a1,1,0,0,1,0,1.16c-.13.24-.38.22-.6.29-.79.27-1.93.35-2.27.91-.46.74.77,1.21,1.1,1.91s.79,1.19,0,1.7-1.15-.22-1.58-.67c-.06-.06-.06-.19-.11-.25-1.59-1.88-.92-1.93-2.48.09a5.28,5.28,0,0,1-.75.81.69.69,0,0,1-1,0,.8.8,0,0,1-.27-1c.11-.25.24-.5.38-.74.34-.61,1.22-1.22.91-1.82s-1.35-.71-2.1-.93c-.22-.07-.46-.06-.6-.29C26.75,48.12,26.45,47.74,26.91,47.34Z"/><path class="cls-26" d="M36.29,48.5l0-1.16C37.24,47.75,36.82,48.13,36.29,48.5Z"/><path class="cls-27" d="M26.91,47.34l0,1.17C26.44,48.13,26,47.75,26.91,47.34Z"/><path class="cls-5" d="M46.2,57.06"/><rect class="cls-28" width="88" height="88"/></g></g></svg>