<svg xmlns="http://www.w3.org/2000/svg" viewBox="0 0 88 88"><defs><style>.cls-1{fill:#666;}.cls-2{fill:#696968;}.cls-3{fill:#676767;}.cls-4{fill:#686767;}.cls-5{fill:#686868;}.cls-6{fill:#676766;}.cls-7{fill:#696969;}.cls-8{fill:#535252;}.cls-9{fill:#535353;}.cls-10{fill:#c4c4c4;}.cls-11{fill:#525252;}.cls-12{fill:#535352;}.cls-13{fill:#5a5a5a;}.cls-14{fill:#5a5959;}.cls-15{fill:#585858;}.cls-16{fill:#8f8f8f;}.cls-17{fill:#a0a0a0;}.cls-18{fill:#a1a1a1;}.cls-19{fill:#fff;}.cls-20{fill:#fffefe;}.cls-21{fill:#fefefe;}.cls-22{fill:#f8f7f8;}.cls-23{fill:#f4f3f3;}.cls-24{fill:#f5f4f4;}.cls-25{fill:#f6f5f6;}.cls-26{fill:#f6f5f5;}.cls-27{fill:#f5f5f4;}.cls-28{fill:#5a595a;}.cls-29{fill:#c2c1c1;}.cls-30{fill:#5b5b5b;}.cls-31{fill:#d2d1d1;}.cls-32{fill:#565555;}.cls-33{fill:#545454;}.cls-34{fill:#d1d0d0;}.cls-35{fill:#989898;}.cls-36{fill:#979797;}.cls-37{fill:#8f9192;}.cls-38{fill:#dfdede;}.cls-39{fill:#5a5c5b;}.cls-40{fill:none;}</style></defs><title>Asset 14</title><g id="Layer_2" data-name="Layer 2"><g id="Layer_1-2" data-name="Layer 1"><path class="cls-1" d="M30.73,28.78l5.51-1.55a3.86,3.86,0,0,1,1.52-.16,11.43,11.43,0,0,0,2.64.08c.18-.09-.07-.31,0-.14s0,.11-.07.12c-.44,0-.88.19-1.28-.14a21,21,0,0,1,8.63,0c-.35.43-.91,0-1.5.3a26.13,26.13,0,0,0,2.8-.21,23.66,23.66,0,0,1,5.42,1.23l1.6.47c.35.24.77.32,1.13.53a26.8,26.8,0,0,1,5,2.55c.33,1-.63.9-1.05,1.26a2.67,2.67,0,0,1-2.46-.85c-.12,0-.16-.2-.31-.2a1.6,1.6,0,0,0,.3.24,2.57,2.57,0,0,1,1.15,1.52,1.47,1.47,0,0,1-1.19,1.47,2.22,2.22,0,0,1-.88-.5c-1-1-2.06-1.92-3-3a8.76,8.76,0,0,0-5.29-2.67c-.45-.09-1-.26-1.33.16a1.63,1.63,0,0,0-.06,1.61,2.1,2.1,0,0,0,.58.79c2.65,2.66,5.29,5.32,8,8a10.57,10.57,0,0,0,2,1.51,3.71,3.71,0,0,0,5-.55c.84-1,1.94-1.86,2.4-3.2.13-.38.43-1,.92-.21.6,2.62-.81,4.34-2.7,5.77-.37.28-.62.49-.66.93-.28.43-.27,1-.53,1.41a5,5,0,0,1-3.65,2.84,1,1,0,0,0-.87.73,5.51,5.51,0,0,1-2.5,2.66,2.12,2.12,0,0,1-1.4.39c-.83-.06-1.66-.08-2.49-.05a.91.91,0,0,1-.94-.3c-1.65.91-3.33,1.67-5.29,1.32a.24.24,0,0,1,.07-.35,6.88,6.88,0,0,1,1.56-.05A6,6,0,0,0,46,52.6c-.62.44-1.21.11-1.77-.13A2.23,2.23,0,0,0,43,52.09a1.5,1.5,0,0,0-1.09.51.61.61,0,0,1-.67.13,8.87,8.87,0,0,0-2.92.13,1,1,0,0,1-.84-.23c-.1,0,.12-.52-.24-.16a.28.28,0,0,1-.28-.06,1.75,1.75,0,0,0-2.17-.52,5.41,5.41,0,0,1-6.46-2.82,1.5,1.5,0,0,0-1.19-1,4.63,4.63,0,0,1-3.16-2.46,17.53,17.53,0,0,1-.76-1.74c-.09-.26,0-.55-.3-.76-3.65-3.11-3.74-3.42-2.26-7.92a1.49,1.49,0,0,1,.85-1.16,29,29,0,0,1,8.16-4.78C30,29.09,30.38,29,30.73,28.78Z"/><path class="cls-2" d="M43.1,54.88H70.39a.5.5,0,0,1-.07.72,3.51,3.51,0,0,1-1.92.26h-19a6.57,6.57,0,0,0-1.54.07,2.11,2.11,0,0,0-.46.5,1.26,1.26,0,0,1-.57.41,3.63,3.63,0,0,1-1.73,0,3.56,3.56,0,0,0-1-.13c-9.56,0-19.13,0-28.69,0a.94.94,0,0,1-.51-.09c-.6-1.53-.15-3.12-.27-4.68,0-.56,0-1.12,0-1.68C14.6,49.46,15,49,15.78,49h7.86c.5,0,1,.14,1.11.66s.28,1-.52,1a31.54,31.54,0,0,0-7.86.12c0,1.07,0,2.15,0,3.22,0,.61.08.94.82.93q11.7-.06,23.39-.07A2.23,2.23,0,0,1,43.1,54.88Z"/><path class="cls-3" d="M71.81,56.65l-.29-.07c-.39-.27-.82-.12-1.23-.12H48.68c-.45,0-.94.14-1.36-.15v-.54a3,3,0,0,1,1.51-.13H68.88a2.92,2.92,0,0,0,1.51-.14V50.79c-.3-.46-.76-.23-1.14-.24-1.78,0-3.55,0-5.33,0-.4,0-1,.3-1.16-.39,1.57-.34,3.16,0,4.42-.15-1.42,0-3.16.07-4.93-.06a.73.73,0,0,1,.83-.61c2.71,0,5.42-.06,8.13,0a1.48,1.48,0,0,1,.79.25C72.05,51.93,72.37,54.3,71.81,56.65Z"/><path class="cls-4" d="M60,64.19c-.69,0-.56-.49-.56-.88,0-1.54,0-3.08,0-4.63,0-.65.17-1.18.87-1.17s.87.56.84,1.19a13.91,13.91,0,0,0,0,1.68c0,.68-.34,1.74.2,2a6.92,6.92,0,0,0,2.74.15c.58,0,.41-.52.42-.86,0-1.07,0-2.15,0-3.22a.85.85,0,1,1,1.69,0q0,2.59,0,5.19c0,.37-.12.64-.56.59A23,23,0,0,0,60,64.19Z"/><path class="cls-5" d="M25.68,58.3a.75.75,0,0,1,.94-.77c.51.07.74.47.73,1,0,1.64,0,3.27,0,4.91,0,.38,0,.78-.57.73a23,23,0,0,0-5.63,0c-.44,0-.59-.16-.52-.57a27.5,27.5,0,0,0,0-5.32.75.75,0,0,1,.94-.77.86.86,0,0,1,.73,1c0,.47,0,.94,0,1.4,0,2.65,0,2.65,2.66,2.58.23,0,.47,0,.7-.06A13,13,0,0,0,25.68,58.3Z"/><path class="cls-6" d="M65.61,34.65c.63.26.68,1,1.13,1.4L67,37.22c-.2-.06-.47-.26-.54.09-.32,1.55-1.62,2.37-2.52,3.5a2.27,2.27,0,0,1-1.17-1.41,3,3,0,0,1,1.55-1.46c.19-.1.72.55.57-.21a3.57,3.57,0,0,0-1.16-2c-.33-.3-.77-.55-.64-1.12C63.9,34.19,64.75,34.86,65.61,34.65Z"/><path class="cls-7" d="M72,49.56H62.54v.27h5.83v.31H62.79c-.14.16-.06.42-.27.55-.76-.59-.76-1.48,0-1.53a44.43,44.43,0,0,1,9.16.1C71.82,49.28,71.9,49.46,72,49.56Z"/><path class="cls-6" d="M63.58,32.42v.3c-.47.51-.32,1.34-.94,1.77-.72-.29-1.65-.36-1.53-1.5.07-.66,1.07-.42,1.09-1.13Z"/><path class="cls-8" d="M62.52,50.68a.56.56,0,0,1,.27-.55c2,.59,4.06.1,6.08.28.52,0,1.15-.27,1.52.38Z"/><path class="cls-9" d="M16.37,50.8c.22-.52.69-.39,1.09-.39l6.45-.1c.24,0,.28.19.31.38Z"/><path class="cls-10" d="M51.22,51.6l.89.19a5.23,5.23,0,0,1,2.53,0l1.42-.26A4,4,0,0,1,51.22,51.6Z"/><path class="cls-11" d="M60,64.19c0-.26.13-.37.45-.36q2.37,0,4.73,0c.32,0,.41.1.45.36A44.53,44.53,0,0,1,60,64.19Z"/><path class="cls-12" d="M21.14,64.19c0-.25.12-.37.44-.36q2.37,0,4.74,0c.32,0,.41.11.45.36A44.52,44.52,0,0,1,21.14,64.19Z"/><path class="cls-13" d="M20.61,58.29a12,12,0,0,1,0,5.32Z"/><path class="cls-14" d="M25.68,58.3c.51,1.38.19,2.79.18,4.19,0,0-.07,0-.11,0a.39.39,0,0,1-.12-.06Z"/><path class="cls-15" d="M49,27.08a3.42,3.42,0,0,1-2.76,0L47.69,27Z"/><path class="cls-15" d="M39.06,27l1.49.13a4.19,4.19,0,0,1-2.8,0Z"/><path class="cls-16" d="M23.16,43.92c.6.43.62,1.11.76,1.74A2,2,0,0,1,23.16,43.92Z"/><path class="cls-16" d="M63.07,45.33c0-.54,0-1.09.53-1.41A1.61,1.61,0,0,1,63.07,45.33Z"/><path class="cls-17" d="M57.15,29.31c-.46,0-.9,0-1.13-.53A1.36,1.36,0,0,1,57.15,29.31Z"/><path class="cls-18" d="M30.73,28.78c-.23.48-.67.53-1.13.53A1.32,1.32,0,0,1,30.73,28.78Z"/><path class="cls-19" d="M30.44,42.31a24.39,24.39,0,0,1,7.9-3.37c.78-.22.82.23.82.83,0,2.53,0,5.06,0,7.6,0,.63-.07,1.33.8,1.35s.9-.71.9-1.4c0-5.86,0-11.72,0-17.58,0-1,.13-1.4,1.27-1.4s2.52,0,3.78.12c.23.23.17.52.17.79q0,9.17,0,18.33a1.78,1.78,0,0,1-.08.55c.14.61.58.66,1.07.53s.57-.64.57-1.12c0-2.61,0-5.22,0-7.83,0-.66.16-1,.86-.77A24.4,24.4,0,0,1,56.3,42.3c-.06.84-.7,1.3-1.23,1.78-2.42,2.25-4.88,4.46-7.44,6.56-.76.62-1.36.28-2,.05-.61.06-.9-.44-1.2-.8-.71-.83-1.31-.84-2,0-.3.36-.59.86-1.2.8a3.09,3.09,0,0,1-2.73-1.07c-2.28-2-4.7-3.79-7-5.78C31,43.44,30.37,43.09,30.44,42.31Z"/><path class="cls-20" d="M58.59,41.39a4.72,4.72,0,0,1-2.15-1.46c-2.67-2.64-5.29-5.34-8-7.92-.9-.85-.81-1.78-.82-2.79,0-.59.4-.56.77-.5,2.23.34,4.51.54,6.16,2.44,1.08,1.25,2.32,2.36,3.48,3.53a2.66,2.66,0,0,1,.61,1.21c.38,2,.66,2.22,2.67,2.46.18,0,.37,0,.55.08a.74.74,0,0,1,.55.58c-.21.84-1,1.43-1,2.41,0,.46-.48.5-.86.49A5,5,0,0,1,58.59,41.39Z"/><path class="cls-21" d="M29.33,31.32c.94-.22,1.7-1,2.72-1a3.77,3.77,0,0,1,2-.49c1.58,1.54,3.2,3.05,4.74,4.64.92,1,.28,2.21-.82,2.75-2.36,1.16-3.68,0-5.06-1.66-1-1.22-2.34-2.2-3.34-3.47C29.38,31.9,29.2,31.66,29.33,31.32Z"/><path class="cls-21" d="M29.05,46.69c-1.69-.23-3.24-.68-4-2.74a10.19,10.19,0,0,0,4.22-.88c.7-.34,1.17.15,1.64.49,1.78,1.29,3.46,2.7,5.14,4.11,1.24,1,2.52,2,3.83,3.18-.78.46-1.34.06-1.91-.15-.45.08-.69-.26-.92-.52a1.55,1.55,0,0,0-2.09-.3c-2.15,1-3.85.4-5.12-1.72C29.47,47.73,29.54,47.06,29.05,46.69Z"/><path class="cls-21" d="M28.91,41a6.16,6.16,0,0,1-.66-.5c-1.54-1.54-3.06-3.1-4.62-4.63-.57-.55-.69-.89.14-1.32a14.5,14.5,0,0,0,2.41-1.62c.72-.59,1.26-.3,1.77.21,1.63,1.62,3.23,3.26,4.85,4.88.38.38.76.57-.1.91a29.74,29.74,0,0,0-3.17,1.69C29.33,40.75,29.14,40.88,28.91,41Z"/><path class="cls-21" d="M57.47,43.07c1.34.34,2.59,1.11,4.08.83a3.13,3.13,0,0,1-2.93,2.59c-.31,0-.66-.09-.92.2-.47.38-.42,1-.79,1.47-1.29,2.14-3,2.71-5.16,1.71a1.58,1.58,0,0,0-1.81,0c-.58-.48-.61-.57,0-1.1.89-.82,1.75-1.68,2.68-2.44s1.86-1.68,2.77-2.54A2.05,2.05,0,0,1,57.47,43.07Z"/><path class="cls-22" d="M24.85,42.22A8.69,8.69,0,0,1,22,40,2.38,2.38,0,0,1,21.49,38c0-.39.18-.82.54-.91.19,0,.51.3.73.52q1.8,1.74,3.57,3.5c.3.3.75.59.38,1.14A2.24,2.24,0,0,1,24.85,42.22Z"/><path class="cls-23" d="M61.11,33c.32.75,1,1,1.68,1.38a.32.32,0,0,1,.3.27,7.15,7.15,0,0,1,2.1,2.84c.13.44.36,1-.06,1.28-.62.39-.55-.58-1-.68-.75.23-1-.53-1.43-.79-.49-.5-.91-1.08-1.44-1.55a2.13,2.13,0,0,1-.39-.4c-.39-.52-1.06-.82-1.17-1.55l-1.19-1.33A.35.35,0,0,1,58.6,32,5.89,5.89,0,0,0,61.11,33Z"/><path class="cls-24" d="M58.59,41.39a11.94,11.94,0,0,0,1.35.26c.65.05,1.47.27,1.18-.93-.22-.93.93-1.07,1.11-1.78.47-.21.58.06.6.45a3.4,3.4,0,0,1,1.06,1.42C62.32,42.49,60.68,42.67,58.59,41.39Z"/><path class="cls-25" d="M49,37.22c-1,.09-1.54-.28-1.38-1.4a16.25,16.25,0,0,0,0-2L51,37.17C50.33,38.21,49.63,37.17,49,37.22Z"/><path class="cls-26" d="M39.16,32.19c-1-1-1.76-1.74-2.59-2.47-.45-.39-.34-.63.13-.74a18.25,18.25,0,0,1,1.94-.27c.47-.05.52.26.52.62C39.15,30.21,39.16,31.09,39.16,32.19Z"/><path class="cls-27" d="M61.68,38.55c-2.3.32-3.17-.36-3.4-2.64a9.44,9.44,0,0,0-.28-1.2c.31,0,.43.27.56.5a2.81,2.81,0,0,1,1.52,1,9.08,9.08,0,0,1,1.66,2A.41.41,0,0,1,61.68,38.55Z"/><path class="cls-28" d="M46,48.14q0-7.24-.09-14.48c0-1.73,0-3.47,0-5.2.34.2.32.54.32.87q0,9.09,0,18.17A2.2,2.2,0,0,1,46,48.14Z"/><path class="cls-6" d="M60,36.35a5.41,5.41,0,0,1-1.4-1.14c.65-.26.85-.87,1.14-1.42.42.52,1.13.75,1.39,1.42a2.33,2.33,0,0,1-.39.36C60.43,35.8,60.31,36.18,60,36.35Z"/><path class="cls-29" d="M49,37.22c.67-.31,1.37.72,2-.05a.92.92,0,0,1,.72.84A5.69,5.69,0,0,1,49,37.22Z"/><path class="cls-30" d="M38.25,52.7c.88-.72,2.11.05,3-.67.17.25-.08.41-.12.62h0a6.81,6.81,0,0,1-2.84,0Z"/><path class="cls-31" d="M34,29.88l-2,.49C32.66,30,33.22,29.37,34,29.88Z"/><path class="cls-32" d="M24.85,42.22h1.86c-.67.61-1.43.28-2.17.21,0,0,0-.09,0-.1Z"/><path class="cls-33" d="M54.64,51.82a7.12,7.12,0,0,1-2.53,0A2.6,2.6,0,0,1,54.64,51.82Z"/><path class="cls-9" d="M45.87,52.69c.7-.62,1.5-.17,2.26-.11l-2.25.11Z"/><path class="cls-34" d="M58.6,32l-.08.46c-.28-.28-1-.3-.67-.91C57.94,31.4,58.49,31.59,58.6,32Z"/><path class="cls-9" d="M34,51.7a3.17,3.17,0,0,1-1.73-.06A2.58,2.58,0,0,1,34,51.7Z"/><path class="cls-35" d="M56.91,48.16c.08-.59.09-1.21.79-1.47C57.41,47.17,57.52,47.86,56.91,48.16Z"/><path class="cls-36" d="M29.05,46.69c.69.26.71.88.79,1.46C29.23,47.86,29.35,47.17,29.05,46.69Z"/><path class="cls-37" d="M42.84,51.83a1.13,1.13,0,0,1-1.15.55A1,1,0,0,1,42.84,51.83Z"/><path class="cls-30" d="M37.41,52.4h-.12l-.11-.05c0-.23.07-.47.37-.43.1,0,.18.17.27.25Z"/><path class="cls-38" d="M29.33,31.32l.24.82C28.92,32,28.86,31.75,29.33,31.32Z"/><path class="cls-5" d="M63.08,34.64l-.3-.27c-.07-.71-.07-1.39.8-1.65a9.48,9.48,0,0,1,2,1.93C64.76,35.41,63.92,34.76,63.08,34.64Z"/><path class="cls-9" d="M45.35,56.6l-30.12,0c0-.19.08-.37.32-.37l28.63.1C44.59,56.32,45,56.19,45.35,56.6Z"/><path class="cls-39" d="M16.7,55.66c1.34-.22,26.93-.22,28.3,0Z"/><path class="cls-9" d="M47.32,56.29q11.87,0,23.75-.06c.31,0,.42.08.46.35-8.16.1-16.32.12-24.48,0Z"/><path class="cls-39" d="M70.4,55.47c-.46.48-1.06.27-1.6.27q-10.74,0-21.48,0c.26-.55.76-.26,1.14-.27Q59.42,55.46,70.4,55.47Z"/><path class="cls-30" d="M15.29,49.61h8.89v.14H15.29Z"/><path class="cls-7" d="M69,50a1.82,1.82,0,0,1,1.36-.11C70,50.29,69.67,50.08,69,50Z"/><path class="cls-1" d="M38.27,52.69l2.84,0A3.39,3.39,0,0,1,38.27,52.69Z"/><path class="cls-7" d="M61.68,38.55q0-.12,0-.23c-.27-1,.53-1,1.15-1.2s.77.81,1.34,1a2.92,2.92,0,0,1-1.31,1.31l-.6-.45Z"/><path class="cls-6" d="M62.81,37.11c-.23.55-1.11.47-1.15,1.2l-1.68-2c.08-.45.15-.9.65-1.1.21.24.32.84.78.22A3.65,3.65,0,0,1,62.81,37.11Z"/><path class="cls-30" d="M61.41,35.47c.07.3.52.75-.18.81s-.69-.51-.6-1l.47,0Z"/><rect class="cls-40" width="88" height="88"/></g></g></svg>