<svg xmlns="http://www.w3.org/2000/svg" viewBox="0 0 88 88"><defs><style>.cls-1{fill:#666;}.cls-2{fill:#656666;}.cls-3{fill:#686868;}.cls-4{fill:#656565;}.cls-5{fill:#646363;}.cls-6{fill:#5a5959;}.cls-7{fill:#5a595a;}.cls-8{fill:#c9c9c9;}.cls-9{fill:#e8e8e8;}.cls-10{fill:#575656;}.cls-11{fill:#595959;}.cls-12{fill:#696969;}.cls-13{fill:#e7e7e7;}.cls-14{fill:#535353;}.cls-15{fill:#515050;}.cls-16{fill:#d3d3d3;}.cls-17{fill:#9d9c9d;}.cls-18{fill:#dfdedf;}.cls-19{fill:#bcbbbc;}.cls-20{fill:#b7b6b6;}.cls-21{fill:#fff;}.cls-22{fill:#fefdfd;}.cls-23{fill:#fcfcfc;}.cls-24{fill:#fdfcfc;}.cls-25{fill:#f3f2f3;}.cls-26{fill:#6c6b6b;}.cls-27{fill:#555454;}.cls-28{fill:#535454;}.cls-29{fill:#878787;}.cls-30{fill:#545453;}.cls-31{fill:#585757;}.cls-32{fill:#d9d8d8;}.cls-33{fill:#565757;}.cls-34{fill:#807f7f;}.cls-35{fill:#555;}.cls-36{fill:#585858;}.cls-37{fill:#cecdcd;}.cls-38{fill:#565656;}.cls-39{fill:#575757;}.cls-40{fill:#cccccb;}.cls-41{fill:#7c7b7c;}.cls-42{fill:#d8d8d8;}.cls-43{fill:#969797;}.cls-44{fill:#bfbfbf;}.cls-45{fill:#919191;}.cls-46{fill:#f7f7f7;}.cls-47{fill:#f2f2f2;}.cls-48{fill:#575857;}.cls-49{fill:#525252;}.cls-50{fill:#717171;}.cls-51{fill:#9f9f9f;}.cls-52{fill:#6c6c6c;}.cls-53{fill:#555554;}.cls-54{fill:#9a9a9a;}.cls-55{fill:#fdfdfd;}.cls-56{fill:none;}</style></defs><title>Asset 11</title><g id="Layer_2" data-name="Layer 2"><g id="Layer_1-2" data-name="Layer 1"><path class="cls-1" d="M22.86,43.14c.54-1.69,2-2.46,3.31-3.44a4.05,4.05,0,0,1,.91-.5l1.06-.37a4.2,4.2,0,0,1,1.19-.47,32.05,32.05,0,0,1,4.75-1.12,4.83,4.83,0,0,0,3.39-.2.66.66,0,0,1,.61.16.66.66,0,0,1,0,.43c-.81,1-1.89.32-2.64.54.57.05,1.34,0,2.11,0,.37.92-.46.72-.82.77a47.24,47.24,0,0,0-5.63,1.11,17.58,17.58,0,0,0-4.61,2c-2.13,1.33-2.19,3-.26,4.62a7.58,7.58,0,0,0,1.16.79c2.48,1.38,2.5,1.39,4.38-.7a20.56,20.56,0,0,1,9.48-5.73,8.22,8.22,0,0,0,1.43-.26,4,4,0,0,0,1.38-.51c1.78-.41,3.5-1.2,5.39-.85a16.54,16.54,0,0,0,2.79.25c.59.2,1-.41,1.62-.32-.13-.36-.89-.24-.63-.78s.79-.19,1.06-.53c.42-.11.75.14,1.12.26s.83.2,1.17.5c2.17.94,4.39,1.8,5.31,4.28-.34,1.17,0,2.38-.17,3.56a25.13,25.13,0,0,1,.17-3.56,2.9,2.9,0,0,1,.45,2.26,24.84,24.84,0,0,1-1.9,7.83.69.69,0,0,1-.37.46c-.36.14-.95-.17-1.28-.87a.62.62,0,0,1-.18-.36c0-.07,0-.16.15-.52.07-.16.1-.24.15-.34a8.2,8.2,0,0,0,.44-2.15c-1,.32-1.76.88-2.66,1.21a33.45,33.45,0,0,1-9.65,2.14,5.81,5.81,0,0,1-1.67-.13,28.51,28.51,0,0,0-6.17,0,3.83,3.83,0,0,1-1.65,0c-.41-.15-.88-.22-1.06-.71.09-.13.14-.37.36-.14,0-.17-.09-.15-.18-.12-.68.28-1.43.14-2.12.38a2.36,2.36,0,0,1-.63.06,12.21,12.21,0,0,1-2.72-.53,3.82,3.82,0,0,0-1.69-.54,21.62,21.62,0,0,1-4.19-1.85c0,.5.31.94.31,1.43a3.28,3.28,0,0,0,.7,1.75,18.54,18.54,0,0,0,10,9.31,3.57,3.57,0,0,0,1.69.48,3.44,3.44,0,0,1,.83.15c.18.07.46.18.79.28a14.79,14.79,0,0,0,4.9.57c3.63-.25,6.51-2.44,8.27-3.78a16.05,16.05,0,0,0,4.32-4.37c1.42-2.24,1.82-4.33,2.41-4.25s.79,1.28.7,2.29-.54,1.66-1.56,2.92a27.57,27.57,0,0,1-3.07,3.46,23.1,23.1,0,0,1-6.31,4,25.71,25.71,0,0,1-7.86,1.3,10.85,10.85,0,0,1-1.44-.09A9.17,9.17,0,0,1,39,64.46a1.87,1.87,0,0,1-1-.16l-.8-.11c-.51-.44-1.28-.27-1.78-.73a17.72,17.72,0,0,1-6.76-4.26,20.67,20.67,0,0,1-5.75-10.61,4.7,4.7,0,0,1,0-1C23.14,46.12,22.65,44.63,22.86,43.14Z"/><path class="cls-1" d="M61.2,53.93"/><path class="cls-1" d="M60.92,58.23"/><path class="cls-2" d="M42.24,22.58c.33-.41.8-.26,1.17-.21,1.55.22,2.28-.46,2.34-2.05-.94,0-1.87,0-2.8,0-1.13,0-1.33-.5-.73-1.6a23.28,23.28,0,0,0,5-.08,8.17,8.17,0,0,1,3.42-2.48c.84-.14,1.11.38,1.23,1.06,0,.66-.63.82-1.25,1.26,1-.52,1.76-1.06,2.54-1.51.68,0,1-.86,1.7-.81.87-.13,1.12.38,1.15,1.11-.12.74-1.31.35-1.31,1.35,2.13.2,3-2,4.63-2.53a.52.52,0,0,1,.35-.09c.75.06,1,.64,1.16,1.22a.25.25,0,0,1-.13.29l-.78.34c-.75.56-.75.56-.37,1,4.06-.06,8.11.07,12.16-.07.68,1.1.44,1.59-.82,1.6-4.26,0-8.51,0-12.77,0-.45,0-1-.2-1.31.25s-.74,1-.66,1.47c.12.62.87.29,1.33.29,4.3,0,8.6,0,12.91,0,.44,0,.94-.22,1.31.22a31.62,31.62,0,0,1-4.9.12c-3.37,0-6.74,0-10.12,0q6.75,0,13.5,0a3.37,3.37,0,0,0,1.52-.12.65.65,0,0,1,.41.91A1.12,1.12,0,0,1,71,24.1c-1.5,0-3,0-4.49,0-3.18,0-6.36.08-9.54,0-1.34,0-1.72.45-1.71,1.65,0,2.38,0,4.77,0,7.15,0,.31.18.65-.15.91-1,.17-1.4-.31-1.39-1.32,0-2.46.06-4.92,0-7.38-.16-.24,0-.6-.28-.78-2.11-.39-2.2-.35-2.73,1.12,0,2.47,0,4.95,0,7.42,0,.64,0,1.32-.79,1.37S49,33.51,49,32.81c0-2.84-.05-5.69-.08-8.53C47,23.92,47,23.92,46.5,25.4c0,2.48-.06,5,0,7.43,0,.73-.06,1.41-.94,1.37s-.77-.75-.77-1.39c0-2.39-.08-4.78,0-7.16.07-1.32-.36-1.77-1.62-1.57a1.09,1.09,0,0,1-1.23-.46.65.65,0,0,1,.3-1c.82.32,1.67,0,2.12.09A7,7,0,0,1,42.24,22.58Z"/><path class="cls-3" d="M39.7,68.41A4.11,4.11,0,0,1,38,68.18c-.54-.26-1.21-.1-1.7-.52a1.72,1.72,0,0,1-1-.38c-.28-.29-.73-.53-.47-1A1,1,0,0,1,36,65.7c.67.16,1.33.36,2,.54a7.23,7.23,0,0,0,2.42.21h.23l.22,0a21.28,21.28,0,0,0,2.63,0l1.44,0c1.48,0,2.23,0,2.27.1.09.29-1.28,1.1-2.74,1.44a7.29,7.29,0,0,1-2,.18q-.05-.34-.12-.34s-.07.06-.11.2C41.42,68.61,40.5,68.09,39.7,68.41Z"/><path class="cls-3" d="M49.87,67A10.55,10.55,0,0,1,45,68.42,9.12,9.12,0,0,0,43,68.31c-.29,0-.68.14-.76-.35l0-.08a7,7,0,0,0,1.71-1.27,2,2,0,0,1,.81-.2A6.71,6.71,0,0,0,47.65,66c.67.21,1.28-.7,2-.09.06.32,0,.65.09,1A.51.51,0,0,1,49.87,67Z"/><path class="cls-4" d="M54.32,38.09c0,.61-.62.41-.91.72.55.11,1.05.25,1.12,1.07-.71-.52-1.25.16-1.9.15l-.12-.13,0-.17c0-.36-.24-.45-.54-.47l-.75,0a1.51,1.51,0,0,1-.78-.22.56.56,0,0,1-.15-.58.51.51,0,0,1,.3-.25c.5,0,1,0,1.51,0-.48-.14-1.07.22-1.47-.32a.41.41,0,0,1,.26-.32,4.81,4.81,0,0,1,2,.2C53.29,38.14,53.87,37.83,54.32,38.09Z"/><path class="cls-5" d="M38,37.22h-.57c-.28.05-.39-.06-.32-.33v0a82.72,82.72,0,0,1,9.33-.24,10.28,10.28,0,0,0,1.22.14,5.76,5.76,0,0,0,1.61.14,6.92,6.92,0,0,1,1.12.21l.27.09a.34.34,0,0,1,0,.53,2.13,2.13,0,0,1-1.87.28,15,15,0,0,0-1.91-.43c-2.38,0-4.76,0-7.15,0A2.38,2.38,0,0,1,38,37.22Z"/><path class="cls-4" d="M46.82,36.88l-9.7,0a25.61,25.61,0,0,1,6.46-.49,11.84,11.84,0,0,0,2.32.1C46.24,36.54,46.66,36.38,46.82,36.88Z"/><path class="cls-6" d="M71.77,18.72c-.42.69-1,.15-1.49.16-3.23.07-6.46,0-9.7,0-.5,0-1,.17-1.48-.24q.11-.26.32-.07C63.53,18.69,67.65,18.46,71.77,18.72Z"/><path class="cls-7" d="M53.72,25.06c.47.4.31.95.31,1.44,0,1.86.07,3.73,0,5.59,0,.93.21,1.48,1.13,1.68-.47.6-.92.59-1.37,0a59.61,59.61,0,0,1,0-8.67Z"/><path class="cls-2" d="M53.73,25.08l0,8.67A36.63,36.63,0,0,1,53.73,25.08Z"/><path class="cls-4" d="M37.11,36.88l.32.33a2.55,2.55,0,0,1-3.37,0A12.13,12.13,0,0,1,37.11,36.88Z"/><path class="cls-8" d="M46.82,36.88c-1-.46-2.21,0-3.24-.47a16.48,16.48,0,0,1,6.82.74l-1.06,0c-.46-.27-1,0-1.48-.24Z"/><path class="cls-9" d="M53.21,17c-.85.69-1.39,1.92-2.82,1.62.07-.92,1.23-.6,1.42-1.33a.42.42,0,0,1,.48-.38C52.56,17.29,52.91,16.85,53.21,17Z"/><path class="cls-10" d="M22.86,43.14a9.07,9.07,0,0,1,0,4.47C22.71,46.12,22.36,44.63,22.86,43.14Z"/><path class="cls-11" d="M47.27,18.63c-.29.61-.84.28-1.23.27-1.27-.06-2.56.28-3.81-.18A43.17,43.17,0,0,1,47.27,18.63Z"/><path class="cls-12" d="M42.19,68c.87.59,2-.16,2.83.46a26.84,26.84,0,0,1-5.32,0C40.46,67.88,41.42,68.42,42.19,68Z"/><path class="cls-9" d="M50.72,25.4c0-1.48.58-1.72,2.73-1.12C52.35,24.19,51.29,24.21,50.72,25.4Z"/><path class="cls-13" d="M46.5,25.4c0-1.48.42-1.68,2.39-1.12A2,2,0,0,0,46.5,25.4Z"/><path class="cls-14" d="M56.06,17.25c-.34-.41-.6-.91-1.15-1.11l0-.07a.93.93,0,0,1,1.15,0C56.29,16.46,56.74,16.83,56.06,17.25Z"/><path class="cls-15" d="M52.29,16.86l-.48.38c-.31-.43-.57-.92-1.13-1.1l0-.08a.92.92,0,0,1,1.15,0Z"/><path class="cls-1" d="M50.66,37.77v-.53a3.57,3.57,0,0,1,2.2.53Z"/><path class="cls-16" d="M60.76,17.49a1.1,1.1,0,0,1,0-.27,1.35,1.35,0,0,1,0-1.08l.07-.11C61.42,16.55,61.67,17.05,60.76,17.49Z"/><path class="cls-12" d="M49.83,65.92c.78.35.78.72,0,1.13l-.08,0h-.08A1.55,1.55,0,0,1,49.83,65.92Z"/><path class="cls-17" d="M35.39,63.46c.61.2,1.36.07,1.78.73C36.53,64.05,35.82,64.11,35.39,63.46Z"/><path class="cls-18" d="M29.32,38.37a2,2,0,0,1-1.19.47C28.31,38.14,28.85,38.34,29.32,38.37Z"/><path class="cls-19" d="M56.61,38.84a1.61,1.61,0,0,1-1.17-.5C55.9,38.35,56.42,38.2,56.61,38.84Z"/><path class="cls-20" d="M59.42,18.6l-.32.07c0-.58.33-.83.88-.84C60,18.21,59.59,18.33,59.42,18.6Z"/><path class="cls-21" d="M45.88,62.55a.27.27,0,0,1-.21,0c-.28-.23-.55-.48-.85-.69s-.6-1-1.2-.54,0,1,.27,1.41c-1.47,1-2.95.05-4.42,0a2.53,2.53,0,0,1-.67-.16l-.79-.1A11,11,0,0,0,36.35,62a17.13,17.13,0,0,1-10.19-9.52,14.15,14.15,0,0,1-.79-1.73c0-.68-.62-1.24-.39-2.1a20.86,20.86,0,0,0,4.57,2.16,9.26,9.26,0,0,0,1.69.53l2.81.56a11.09,11.09,0,0,1,3.4.51h1.69a37.66,37.66,0,0,1,6.46,0,28.79,28.79,0,0,0,14.34-3.75,5.4,5.4,0,0,1-.84,2.93c-.31.28-.63.14-.9,0-1.12-.77-1.73.21-2.43.72-.42.3,0,.66.16,1,.29.55,1,.92.73,1.71-.64.25-.91-.29-1.25-.63-.65-.65-1.33-1.1-2.17-.37-.56.49-1-.14-1.65-.1A28.81,28.81,0,0,0,53.92,57c.28.39.8.72.41,1.32h0c-.76.14-1-.49-1.44-.91A9,9,0,0,0,52,56.37c-1.08-.84-2-.51-2.17.82a3.79,3.79,0,0,1-.09.69.52.52,0,0,1-.28.26c-.42.07-.84-.06-1.26,0a2.14,2.14,0,0,0-1.53,1.14c-.4.57.21.91.48,1.32s.87.75.77,1.42a.63.63,0,0,1-.56.13c-1.25-.63-1.85-2.07-3.25-2.69-.19.8.45,1,.74,1.44S46,61.68,45.88,62.55Z"/><path class="cls-22" d="M50.38,38.86l.78.09a.63.63,0,0,1-.33.91,3,3,0,0,1-1.29-.09c-1.95-.19-3.74.64-5.63.86a5.17,5.17,0,0,1-1.1.37,3,3,0,0,0-1.46.39c-4.12,1.46-8,3.32-10.42,7.18a.93.93,0,0,1-1.32.36,14.39,14.39,0,0,1-3.9-2.13c-1.83-1.6-1.81-3.09.11-4.59,2.58-2,5.67-2.72,8.79-3.31,1.05-.2,2.11-.36,3.17-.54.55-.6,1.28-.37,1.94-.41a5.66,5.66,0,0,0,1.63-.18,5.41,5.41,0,0,1,2,0c1.26.39,2.58,0,3.85.27C48.24,38.37,49.41,38.25,50.38,38.86Z"/><path class="cls-23" d="M46.44,43.94l-.5.08c-.64.36-1.4.4-2,.76a21.15,21.15,0,0,0-8,4.69c-.65.65-2.53.93-3.18.35s.15-1,.42-1.34A16.85,16.85,0,0,1,39.49,44c4.65-2.06,9.6-2.66,14.62-2.84,2.88-.1,3.91.17,5.18,1.41a63.16,63.16,0,0,0-10.82.85A8.26,8.26,0,0,0,46.44,43.94Z"/><path class="cls-24" d="M37.39,50.71a7.42,7.42,0,0,1,2.78-2.23,29.85,29.85,0,0,1,11.49-3.7,42.59,42.59,0,0,1,7.41-.39c.47,0,1.31-.27,1.36.55s-.75.77-1.34.81c-5.66.37-11.24,1.19-16.2,4.16C41.15,50.95,39.43,50.63,37.39,50.71Z"/><path class="cls-25" d="M45.87,50.35A23.7,23.7,0,0,1,49.8,49c.5-.4,1.16-.27,1.71-.5,1.39-.42,2.89-.24,4.25-.82h0c.49.22,1.09-.22,1.62.29A13.65,13.65,0,0,1,54,49.3c-.53.26-1.2.1-1.69.52l-2.2.36c-.94.19-1.94,0-2.8.6a1.2,1.2,0,0,1-.88,0l-.86,0C45.52,50.47,45.62,50.35,45.87,50.35Z"/><path class="cls-4" d="M41.45,38.09a14.1,14.1,0,0,1-3.65.28H34.91c1-.59,2.24.12,3.08-.88,2.49-.3,5,0,7.5-.14a4.17,4.17,0,0,0,1.78-.13c.41.34,1,.11,1.42.56a.65.65,0,0,1-.11.08c-.11.06-.09,0,0,.07.57.21,1.36-.47,1.77.41h0c-1.06.54-2.13,0-3.19,0a14,14,0,0,1-3.9-.28c.86-.38,1.79,0,2.67-.24.18-.05-.06-.28,0-.11s0,.1-.09.11c-2.26.15-4.52.05-7,0C39.89,38,40.7,37.72,41.45,38.09Z"/><path class="cls-26" d="M47.28,37.22c-.41.46-1,.26-1.45.27-2.61,0-5.22,0-7.83,0q0-.14,0-.27Z"/><path class="cls-27" d="M57.61,40.79h-7.2v-.14h7.24Z"/><path class="cls-28" d="M45.59,52.39a44.07,44.07,0,0,1-6.46,0A16.52,16.52,0,0,1,45.59,52.39Z"/><path class="cls-29" d="M37.44,52.37a8.89,8.89,0,0,1-3.4-.51l.64-.09a3.64,3.64,0,0,1,1.89.09Z"/><path class="cls-30" d="M61.92,43.13V47c-.15-1.29-.58-2.59,0-3.86Z"/><path class="cls-31" d="M55.58,42.91h3.19V43H55.46Z"/><path class="cls-32" d="M47.28,50.66c.82-1,1.91-.3,2.86-.47l-1.8.5A.76.76,0,0,1,47.28,50.66Z"/><path class="cls-33" d="M54.84,44.18h-3V44h3Z"/><path class="cls-34" d="M41.39,64.48l-1.16.08a.87.87,0,0,0-.22-.08c-.22-.35-.56-.24-.87-.22A2.06,2.06,0,0,1,41.39,64.48Z"/><path class="cls-35" d="M49.55,39.77l1.35-.08a1.34,1.34,0,0,1,1.72,0V40C51.61,39.91,50.54,40.32,49.55,39.77Z"/><path class="cls-36" d="M36.57,51.86l-1.89-.09c.79-.42,1.63-.11,2.49-.2-.09.12-.13.22-.19.24A2.27,2.27,0,0,1,36.57,51.86Z"/><path class="cls-13" d="M46.44,43.94c.52-.82,1.32-.49,2-.5A4,4,0,0,1,46.44,43.94Z"/><path class="cls-37" d="M43.9,44.78c.51-.73,1.33-.6,2-.76A3.29,3.29,0,0,1,43.9,44.78Z"/><path class="cls-38" d="M47.28,50.66l1.06,0,.55.1a3.44,3.44,0,0,1-2.42,0Z"/><path class="cls-39" d="M55.77,47.66H53.55c.75-.19,1.51-.6,2.22,0Z"/><path class="cls-40" d="M25.37,50.71c.62.41.64,1.1.79,1.73A2.14,2.14,0,0,1,25.37,50.71Z"/><path class="cls-38" d="M49.47,51.79H47.62v-.13h1.87Z"/><path class="cls-41" d="M45.87,50.35l-.27.37a.4.4,0,0,1-.57.2c-.06,0-.07-.25,0-.35C45.19,50.15,45.49,50,45.87,50.35Z"/><path class="cls-37" d="M31.23,51.3c-.62,0-1.28.15-1.69-.53A2.9,2.9,0,0,1,31.23,51.3Z"/><path class="cls-42" d="M36.35,62c.61,0,1.27-.14,1.66.54A2.41,2.41,0,0,1,36.35,62Z"/><path class="cls-43" d="M51.51,48.47a3.55,3.55,0,0,1-1.71.5C50.23,48.33,50.9,48.48,51.51,48.47Z"/><path class="cls-37" d="M41.36,41.39c.33-.58.87-.56,1.43-.51q.14.12.07.17a.19.19,0,0,1-.13,0Z"/><path class="cls-44" d="M52.33,49.82c.42-.64,1.08-.48,1.69-.52A3,3,0,0,1,52.33,49.82Z"/><path class="cls-45" d="M42.73,41.1a1,1,0,0,0,.06-.22,1.76,1.76,0,0,1,1.13-.25A1,1,0,0,1,42.73,41.1Z"/><path class="cls-46" d="M55,20.32c-.77.9-.61,2.34-2.14,2-.46-.09-1.34.48-1.31-.43A1.5,1.5,0,0,1,53,20.32C53.57,20.3,54.16,20.32,55,20.32Z"/><path class="cls-31" d="M71.76,22.6c-.24.31-.58.26-.9.26H56.8a.56.56,0,0,1-.48-.26H71.76Z"/><path class="cls-47" d="M50.08,20.46c-.26,1.42-.87,2.2-2.36,1.92-.47-.09-.48-.32-.4-.68C47.56,20.56,48.36,20.18,50.08,20.46Z"/><path class="cls-48" d="M42.24,22.58l2.65,0s.08,0,.24.16c-1.05,0-2,.32-2.9-.2Z"/><path class="cls-49" d="M60.77,16.14c0,.36.19.72,0,1.08-.46-.25-.41-1-1-1.07Z"/><path class="cls-24" d="M55.75,56.92c-1.19.07-1.37-1-1.93-1.69-.15-.17,0-.46.18-.61s.41,0,.59.17A8.35,8.35,0,0,1,56,56.63Z"/><path class="cls-50" d="M43.62,64.52l-.79-1.16c.51-.41,1.12-.18,1.66-.29a.38.38,0,0,0,.19.09c.32.36,1,.73.68,1.19s-1.12.32-1.73.17Z"/><path class="cls-21" d="M44.47,62.82c-.06-.34-.58-.47-.4-1,.28.36.92.43.4,1Z"/><path class="cls-1" d="M50.38,38.34c-.77-.62-1.7-.07-2.53-.35.2-.38.56-.14.84-.21h2c.45.54,1.14.11,1.66.56Z"/><path class="cls-1" d="M47.19,38.37l3.19,0v.52A10.52,10.52,0,0,1,47.19,38.37Z"/><path class="cls-51" d="M52.62,39.73l-1.72,0,.26-.74.87,0c.28.21.79.26.57.82Z"/><path class="cls-1" d="M52.6,39.74,52,38.92C52.56,39,53.32,38.83,52.6,39.74Z"/><path class="cls-4" d="M47.85,36.95a2.39,2.39,0,0,1,1.48.24C48.83,37.16,48.29,37.4,47.85,36.95Z"/><path class="cls-52" d="M48.47,63.71l-.33,0c-.32-.35-.87-.65-.52-1.23a.72.72,0,0,1,1.07-.18h0C48.71,62.76,50.14,63.47,48.47,63.71Z"/><path class="cls-3" d="M28.68,43.93c.14-2.24,1.89-2.87,3.55-3.67.69-.33,1.17-.67,1.8.07a2.59,2.59,0,0,0,2,.79c.52,0,1.08.3,1,.94a1,1,0,0,1-1.14.81,7.14,7.14,0,0,1-1.67-.21c-2-.62-3.44.18-3.87,2.12a.79.79,0,0,0,.19.77c.56.53.4,1-.07,1.43s-.92,0-1.27-.34a10,10,0,0,1-.8-.94A1.2,1.2,0,0,1,28.68,43.93Z"/><path class="cls-53" d="M41.45,38.09,38.86,38v-.15h7.25v.26H41.45Z"/><path class="cls-54" d="M28.68,43.93a2.17,2.17,0,0,0-.28,1.76C27.46,44.94,27.9,44.41,28.68,43.93Z"/><path class="cls-55" d="M48.45,59.24a2.37,2.37,0,0,1,1.26,1.3.4.4,0,0,1-.49.48A2.22,2.22,0,0,1,48,59.83C47.83,59.56,48.07,59.32,48.45,59.24Z"/><path class="cls-21" d="M53,58.17l-1.21-1C52.68,57,52.81,57.64,53,58.17Z"/><path class="cls-21" d="M49.53,58c.31,0,.68-.08.8.34a.4.4,0,0,1-.14.29C49.84,58.61,49.69,58.32,49.53,58Z"/><path class="cls-21" d="M51.86,53.91c.41.22.66.4.69.77C52,54.71,51.92,54.42,51.86,53.91Z"/><path class="cls-21" d="M41.94,63.86"/><rect class="cls-56" width="88" height="88"/></g></g></svg>