<svg xmlns="http://www.w3.org/2000/svg" viewBox="0 0 88 88"><defs><style>.cls-1{fill:#666;}.cls-2{fill:#676767;}.cls-3{fill:#5b5a5a;}.cls-4{fill:#fbfbfb;}.cls-5{fill:#f9f8f7;}.cls-6{fill:#d1d1d1;}.cls-7{fill:#545454;}.cls-8{fill:#faf8f8;}.cls-9{fill:#d5d4d4;}.cls-10{fill:#d5d5d5;}.cls-11{fill:#fff;}.cls-12{fill:#fefefe;}.cls-13{fill:#faf9f9;}.cls-14{fill:#fdfcfc;}.cls-15{fill:#565555;}.cls-16{fill:#a2a1a1;}.cls-17{fill:#676766;}.cls-18{fill:#a1a1a1;}.cls-19{fill:#d5d4d5;}.cls-20{fill:#f9f8f9;}.cls-21{fill:#5c5b5b;}.cls-22{fill:#cecdce;}.cls-23{fill:#666565;}.cls-24{fill:#555;}.cls-25{fill:#585757;}.cls-26{fill:#dbdbdb;}.cls-27{fill:#8a8b8b;}.cls-28{fill:#cbcbcb;}.cls-29{fill:#d6d5d5;}.cls-30{fill:#525252;}.cls-31{fill:#5b5b5b;}.cls-32{fill:#f7f7f7;}.cls-33{fill:#d8d7d7;}.cls-34{fill:#5a5959;}.cls-35{fill:#b4b5b9;}.cls-36{fill:#909192;}.cls-37{fill:#fcfbfb;}.cls-38{fill:#656565;}.cls-39{fill:#cbcacb;}.cls-40{fill:#565656;}.cls-41{fill:#878787;}.cls-42{fill:#5a5a5a;}.cls-43{fill:#545353;}.cls-44{fill:#bebdbe;}.cls-45{fill:#5d5d5d;}.cls-46{fill:#5e5e5e;}.cls-47{fill:#484848;}.cls-48{fill:#bfc0c4;}.cls-49{fill:#a0a0a0;}.cls-50{fill:#aeaeae;}.cls-51{fill:#ebeaeb;}.cls-52{fill:#eeeded;}.cls-53{fill:#767776;}.cls-54{fill:#dbdbde;}.cls-55{fill:#d5d5d6;}.cls-56{fill:none;}</style></defs><title>Asset 8</title><g id="Layer_2" data-name="Layer 2"><g id="Layer_1-2" data-name="Layer 1"><path class="cls-1" d="M26.38,46.1c0-1.49.14-3,0-4.46-.21-2.54,1.25-3.95,3.2-5a17.85,17.85,0,0,1,2.74-1,1,1,0,0,1,.66-.16,14.51,14.51,0,0,0,4,0c1.81-.11,3.23.85,4.67,1.75a7.44,7.44,0,0,1,1.75,2.28,4.91,4.91,0,0,1,.29,2.21q0,3.37,0,6.74c0,3.28-1.27,5-4.44,6.16a7.55,7.55,0,0,1-1.91.2,19.69,19.69,0,0,0-4.83,0,4.29,4.29,0,0,1-1.74-.13,2.37,2.37,0,0,1-.42-.09,3.08,3.08,0,0,1-.75-.36,9.62,9.62,0,0,1-2.36-1.6,4.7,4.7,0,0,1-1.16-4.09,1.4,1.4,0,0,1,.15-.38c1.42-.89,1.42-.89.13-1.65A.31.31,0,0,1,26.38,46.1Z"/><path class="cls-1" d="M58.24,36.48l.48.1a9.89,9.89,0,0,1,1.49.77,6,6,0,0,1,2.57,3.39c.52,1.65.18,3.34.21,5,0,1.4.12,2.79.13,4.19-.31,2.93-3.6,5.67-6.36,5.32a7.64,7.64,0,0,0-5,.05c-.73.1-1.48.26-1.68-.78.57-.33,1.31.13,1.84-.39,1.46,0,2.92,0,4.06,0,.5-.1.3-.38.35-.2s0,.08,0,.09a23.34,23.34,0,0,1-4,.09c-.26,0-.41-.18-.43-.44.35-.83,1.08-.54,1.69-.55,1.62,0,3.26.11,4.78-.7a6.35,6.35,0,0,0,1.78-1.32,1.42,1.42,0,0,0,.49-1.31c0-1,0-2.06,0-3.09,0-.82-.36-.85-1-.47a1.72,1.72,0,0,0-.77,1.56c0,.94,0,1.87,0,2.81-.07.73-.39,1.29-1.19,1.3s-1.12-.55-1.21-1.28c-.14-1.16.14-2.34-.21-3.49-1.44-.7-2.92-.28-4.39-.2a4.32,4.32,0,0,1-2.9-.77c-.74-.35-1.1-.37-1.07.61,0,1.62-.16,3.26.61,4.78a1,1,0,0,0,.7,1.28,20.41,20.41,0,0,0,2.14.94c.27.07.71.22.23.64-.56.1-1.19-.17-1.69.3a5.12,5.12,0,0,1-4.4-4.39c-.13-3.13-.06-6.27,0-9.41a3.45,3.45,0,0,1,.82-2,1.62,1.62,0,0,1,.83-.69c.32,0,.32.56.83.43.73-.17.77.35.62.9,0,.52-.36.9-.53,1.36a1.51,1.51,0,0,0,.24,1.71,5.69,5.69,0,0,0,2.2,1.66,2.22,2.22,0,0,0,1.41.41,35.63,35.63,0,0,0,4.34,0A5.63,5.63,0,0,0,59.75,43c1.22-1.22,1.13-2.19-.19-3.3-.25-.21-.52-.39-.76-.62a2.33,2.33,0,0,0-1-.63,3,3,0,0,1-.36-.16A2.42,2.42,0,0,0,55.9,38c-1-.1-2.08.28-3-.35.6-1,1.57-.12,2.13-.45.36,0,.09-.33.17-.16s0,.08-.07.08c-.68,0-1.85.46-1.91-.34s1.13-.59,1.82-.67a9.59,9.59,0,0,1,1.4,0A2.81,2.81,0,0,1,58.24,36.48Z"/><path class="cls-1" d="M69.17,54.24a44.42,44.42,0,0,1-10,8l-2.38,1.35c-.8.6-1.74.32-2.62.4-2.78-.08-5.55,0-8.33,0a8.74,8.74,0,0,1-3.43-.33,45.71,45.71,0,0,1-14.23-4.68c-.49-.25-1-.49-1.48-.73a2.31,2.31,0,0,1-1.4-1.08c-.25-.45-.58-.85-.81-1.31-.49-1-.09-1.19.83-.94.64.29,1.22.68,1.85,1a44.21,44.21,0,0,0,18.13,6c2.39.25,4.77.22,7.16.25,2.77,0,5.06-1.2,7.25-2.69a40,40,0,0,0,7.12-5.91A7.53,7.53,0,0,1,68.3,52a9.74,9.74,0,0,0,2.08-3.21c.35-.75.17-1-.63-1-1.35,0-2.71,0-4.06,0-.44,0-.95.17-1.28-.31a27.45,27.45,0,0,1,4.71-.11c-1,.1-2.86-.28-4.7.12-.64-.38-.59-.77,0-1.17,1.79.38,3.6.07,5.4.17.6,0,1.21-.08,1.49,0-2.09-.12-4.51.21-6.9-.16.85-.57,1.8-.22,2.7-.26,1.45-.06,2.91,0,4.36,0s1.7.43,1.24,1.84A26.42,26.42,0,0,1,70,53.1C69.8,53.51,69.73,54.07,69.17,54.24Z"/><path class="cls-1" d="M36.58,34.81c0-1.44,0-2.88,0-4.32a5.34,5.34,0,0,1,.86-3.54,3,3,0,0,1,1.14-1.12h0c.23-.7,1-.48,1.44-.84a11.72,11.72,0,0,1,2.76-.62q2.27.11,4.53,0l2.17.37a11.91,11.91,0,0,1,1.48.78c.59.54,1.39.88,1.68,1.71-.48,1.1-1.35.29-2,.42a5.46,5.46,0,0,1-1.27-.55,9.82,9.82,0,0,0-7.9-.22c-1.19.52-2.59,1.11-2.65,2.61s1.2,2.2,2.41,2.79c.36.28,1,.2,1.08.84,0,.25-.9-.06-.38.7.24.34-.61.48-1,.6a3.48,3.48,0,0,1-1-.12c-.56-.17-1.07-.68-1.48.37C38,35.48,37.24,35.58,36.58,34.81Z"/><path class="cls-2" d="M20.85,54.23a4.73,4.73,0,0,0-1.91-1.71c-1-1.12-2-2.23-3-3.37-.83-1-.66-1.62.55-1.87,2.2-.46,4.42-.79,6.62-1.22.63-.12,1,.23,1.31.61.15,1.26-.81,1.38-1.65,1.64a10.46,10.46,0,0,1-2.1.39,3.85,3.85,0,0,0-1.94.34.93.93,0,0,1-.41,0c0,.11.12.09.18.13a1.77,1.77,0,0,1,.6.74A19.94,19.94,0,0,0,21,52.79c.16.61,1.27,1,.51,1.83A.65.65,0,0,1,20.85,54.23Z"/><path class="cls-3" d="M53.42,34.79c-1.42.51-1.42.51-1.88-1.58-.47.26-.87.86-1.51.29l-.31-.23c-.36-.26-.86-.45-.53-1.06a7.3,7.3,0,0,0,1.42-1.11c.73-.87,1-1.75.24-2.75-.19-.24-.45-.51-.21-.87.58-.67,1.4.64,2-.25a.34.34,0,0,0,.26.06c.08.35.14.72.54.88Z"/><path class="cls-4" d="M41.9,34.87c-.13.85.32,1.77-.33,2.54-1.44-.68-2.78-1.65-4.46-1.69a19.35,19.35,0,0,1-4.19,0l-.58-.08c-.18-1.3.78-.77,1.24-.66a5.55,5.55,0,0,0,3-.17c1.49.46,1.54.41,1.8-1.61l1.54.81c.48.47,1.18.29,1.73.58A.67.67,0,0,1,41.9,34.87Z"/><path class="cls-5" d="M68.3,52c-.29.51-.45,1.13-1.07,1.39-.73-1.49-2.32-2.08-3.39-3.22-.37-.39-.63.62-1.06.15V40.74c.71-.26.51.3.51.61,0,1.82.11,3.66,0,5.47A2.2,2.2,0,0,0,64,49C65.44,50,66.53,51.48,68.3,52Z"/><path class="cls-6" d="M42.46,63.59l3.39.23c1.8-.14,3.6,0,5.41,0,1,0,2-.4,3,0a7.71,7.71,0,0,0,2.54-.25c-1,1-2.29.64-3.4.74a64.49,64.49,0,0,1-10-.21A1.09,1.09,0,0,1,42.46,63.59Z"/><path class="cls-7" d="M47.27,24.38a6.82,6.82,0,0,1-4.53,0A9.7,9.7,0,0,1,47.27,24.38Z"/><path class="cls-8" d="M38.54,25.83l-1.14,1.12C37.51,26.29,37.71,25.74,38.54,25.83Z"/><path class="cls-9" d="M60.21,37.35a2.48,2.48,0,0,1-1.49-.77A1.54,1.54,0,0,1,60.21,37.35Z"/><path class="cls-10" d="M50.92,25.53a2.38,2.38,0,0,1-1.48-.78A1.56,1.56,0,0,1,50.92,25.53Z"/><path class="cls-11" d="M62.79,50.32c.63,0,.41-.63.67-1,1.16,1,2.27,2,3.47,3,.45.35.37.66.31,1.06-2.17,2.83-5.19,4.66-8,6.78-3.58,2.72-7.69,2.32-11.71,2.15a43.2,43.2,0,0,1-19.82-5.73A5.33,5.33,0,0,1,27,56c.5-.78,1.51-.29,2.13-.85.36-.33,1.19,0,1.25-.83h.28c1.16.64,2.42.37,3.65.43.3,0,.59,0,.89,0,1.32-.07,2.67.24,3.92-.43,3.18-1.22,4.22-2.72,4.22-6q0-3.58,0-7.15A3.78,3.78,0,0,0,43,39.31c0-.57.2-.84.81-.83a10.32,10.32,0,0,1,2.84.29,5.41,5.41,0,0,0-.87,3.55c.07,2.19,0,4.38,0,6.57C45.85,52,47,53.59,50,54.56h0a2.24,2.24,0,0,0,1.73.52,20.75,20.75,0,0,1,5.06,0C59.71,54.78,62.58,52.6,62.79,50.32Z"/><path class="cls-12" d="M34.37,46.62a3.09,3.09,0,0,1,.42,0c.85.11,2-.58,2.46,0s.13,1.71.15,2.59a7.77,7.77,0,0,1,0,1,.75.75,0,0,0,.82.89.8.8,0,0,0,.9-1c0-.7,0-1.4,0-2.11,0-2.36,0-2.36,2.38-3.28.37,5.33.53,6.43-3.2,7.85a7.91,7.91,0,0,1-6.8,0C29,51.8,27.89,50.44,28.1,48.2c.1-1.11,0-2.24,0-3.43,1,0,1.64.89,2.52,1.07a5.68,5.68,0,0,0,1.73.5h0C33,46.77,33.72,46.32,34.37,46.62Z"/><path class="cls-13" d="M31.47,44.17A4.41,4.41,0,0,1,29.27,43c-1.55-1.25-1.43-2.74.07-4.1,2.37-2.14,8.1-2.16,10.56-.37.9.65,1.89,1.38,1.66,2.68-.27,1.54-1.55,2.23-2.83,2.81-.32.15-.73.12-1,.37A8.13,8.13,0,0,1,31.47,44.17Z"/><path class="cls-14" d="M30.37,54.28c0,.67-1.69,1.65-2.76,1.64-.21,0-.43-.19-.62,0-.71,0-1.09-.61-1.65-.9-.76-.55-2-.45-2.27-1.68a30.23,30.23,0,0,0,.52-3.44c0-.91.49-1.22,1.27-1.42.53,1-.14,2-.13,3S24.92,53,26,53.16c1.28.19,2.55.54,3.82.82Z"/><path class="cls-11" d="M27.59,52.49c-.63.54-2.13.25-2.26-.48-.22-1.22.27-2.39.33-3.6,0-.33.47,0,.72-.07A5.68,5.68,0,0,0,27.59,52.49Z"/><path class="cls-15" d="M35.1,55.07l-.72,0c-.65-.32-1.51.28-2-.49a9.05,9.05,0,0,1,5.07,0C36.79,55.38,35.82,54.68,35.1,55.07Z"/><path class="cls-16" d="M31.47,52.62a13.48,13.48,0,0,0,6.8,0c-.35.75-1.23.3-1.71.75a6.35,6.35,0,0,1-3.38,0C32.7,52.91,31.83,53.36,31.47,52.62Z"/><path class="cls-17" d="M26.47,48.08V46.36c.58,0,1.31-.1,1.36.78S27.14,48.08,26.47,48.08Z"/><path class="cls-18" d="M31.47,44.17a16.68,16.68,0,0,0,6.23.26c-.26.43-.85.11-1.14.48a6.36,6.36,0,0,1-3.38,0C32.7,44.47,31.83,44.91,31.47,44.17Z"/><path class="cls-7" d="M32.33,46.11c1.56-.66,3.17-.1,4.76,0H32.33Z"/><path class="cls-19" d="M35.1,55.07l2.31-.52,1.69-.26A5.49,5.49,0,0,1,35.1,55.07Z"/><path class="cls-10" d="M32.34,54.55l2,.49a5,5,0,0,1-3.74-.76Z"/><path class="cls-7" d="M32.92,35.72a17.88,17.88,0,0,1,4.19,0A7.55,7.55,0,0,1,32.92,35.72Z"/><path class="cls-15" d="M33.19,44.92h3.38A3.76,3.76,0,0,1,33.19,44.92Z"/><path class="cls-7" d="M33.19,53.36h3.38A3.77,3.77,0,0,1,33.19,53.36Z"/><path class="cls-10" d="M32.37,46.34c-.64.05-1.31.21-1.73-.5l1.69.26h0A.74.74,0,0,1,32.37,46.34Z"/><path class="cls-10" d="M34.37,46.62c-.69,0-1.41.32-2-.27A5,5,0,0,1,34.37,46.62Z"/><path class="cls-12" d="M48.33,51.72c-1.4-2.09-.56-4.41-.81-6.78,1.48.77,2.7,1.68,4.25,1.68a39.19,39.19,0,0,1,5,.14q0,1.69,0,3.37c0,.67-.05,1.46.85,1.48s.92-.73.88-1.43c0-.37,0-.75,0-1.12-.24-1.94.07-3.54,2.48-3.9V50a6.42,6.42,0,0,1-.51,1.13c-1.65,2.18-4,2.37-6.49,2.39-.65,0-1.3-.06-2-.09A3.85,3.85,0,0,1,48.33,51.72Z"/><path class="cls-20" d="M47.78,40.67c-.08-.6.7-.72.72-1.26a2.11,2.11,0,0,1,1.4-.92c.58,0,1.17-.18,1.63.35a.54.54,0,0,1-.17.57,8.65,8.65,0,0,0-1.17.72c-1.41,1.31-1.27,2,.59,2.83a8.44,8.44,0,0,0,6,.35,5.87,5.87,0,0,0,1.2-.35c1.56-.72,1.71-1.61.48-2.82a2.09,2.09,0,0,0-1.17-.55c-.4-.11-.8-.18-1.2-.27a2.39,2.39,0,0,1-.43-.14,5.1,5.1,0,0,0-1.92-.33c-.41-.05-.93-.1-.89-.66s.56-.36.89-.37c.79,0,1.59,0,2.38,0a3.1,3.1,0,0,1,1.58.39l.26.1a6.14,6.14,0,0,0,.9.47c.18.15.35.3.53.44,2.37,1.78,2.08,3.63-.61,5-2.28,1.16-4.61,1-7,.74-.45-.25-1-.29-1.44-.5a4.25,4.25,0,0,1-2.23-1.71A2.46,2.46,0,0,1,47.78,40.67Z"/><path class="cls-21" d="M49.75,38.75l-1.26.66c-.2-.25-.1-.85-.74-.59s-.45-.22-.49-.51c2.7-2.44,5.91-2.62,9.28-2.07-1,.67-2.17,0-3.32.48.68.7,1.56.11,2.21.52-.83.39-1.79-.24-2.55.41C52.12,38.81,50.75,38.24,49.75,38.75Z"/><path class="cls-22" d="M49.75,38.75c.92-.74,2.12-.66,3.14-1.1l3.32.06c.11,0,.16,0,.14.11s0,.1-.07.1a18.69,18.69,0,0,0-3.6.24c1.28.65,2.51,0,3.31.86-1.11.8-2.37.28-3.56.42a1.25,1.25,0,0,1-1-.38C51,38.52,50.31,39,49.75,38.75Z"/><path class="cls-23" d="M48.33,51.72A10.38,10.38,0,0,0,52,53.45c.13.68.68.51,1.11.52a14.22,14.22,0,0,1,3.33.29H51.76A25.34,25.34,0,0,1,48.92,53C48.55,52.83,47.4,52.65,48.33,51.72Z"/><path class="cls-23" d="M56.83,55.08a10.52,10.52,0,0,1-5.06,0C52.76,54.3,56,54.3,56.83,55.08Z"/><path class="cls-24" d="M56.81,46.76a17.4,17.4,0,0,1-5-.14A8.31,8.31,0,0,1,56.81,46.76Z"/><path class="cls-25" d="M55.91,45.74H52.61V45.6h3.31Z"/><path class="cls-26" d="M47.78,40.67l.33,2A1.48,1.48,0,0,1,47.78,40.67Z"/><path class="cls-27" d="M56.29,37.91a1,1,0,0,0-.08-.21c.57-.08,1.13-.13,1.47.48Z"/><path class="cls-28" d="M50.34,44.42c.55-.05,1.09-.07,1.44.5A1.85,1.85,0,0,1,50.34,44.42Z"/><path class="cls-19" d="M60.48,51.15A1,1,0,0,1,61,50,1,1,0,0,1,60.48,51.15Z"/><path class="cls-23" d="M51.76,54.26c-.5.52-1.16.17-1.73.3h0C50.54,54,51.19,54.35,51.76,54.26Z"/><path class="cls-29" d="M58.84,38.75c-.4,0-.8.07-.9-.47C58.35,38.22,58.59,38.49,58.84,38.75Z"/><path class="cls-17" d="M23.06,53.38c.56.82,1.74.81,2.27,1.68l-.8-.12c.06.88,1,1.27,1.07,2.11-1.07-.09-1.7-1-2.57-1.45a2.35,2.35,0,0,0-1.1-.49c-.44,0-.71-.13-.5-.64.39-.78-.72-.94-.65-1.59a1.15,1.15,0,0,1-.12-1.09c1-.63,1,.49,1.51.78C22.26,53.08,22.67,53.23,23.06,53.38Z"/><path class="cls-7" d="M54.29,63.82a40.8,40.8,0,0,1-8.44,0c1.71-.58,3.46-.2,5.19-.24C52.12,63.55,53.25,63.25,54.29,63.82Z"/><path class="cls-30" d="M64.4,46.35H72c-2.52.09-5.05.71-7.56,0Z"/><path class="cls-31" d="M64.41,47.52c0-.18.06-.4.3-.4h5.85v.4H64.41Z"/><path class="cls-25" d="M45.72,62.65H43.37A3.63,3.63,0,0,1,45.72,62.65Z"/><path class="cls-32" d="M41,32.62l-.13-.05c-1.27-.7-2.69-1.42-2.55-3.1s1.73-2.54,3.24-3a9.69,9.69,0,0,1,8,.51c-.25.93-1,.57-1.63.7a8,8,0,0,1-1,0c-1.18,0-2.37,0-3.55,0a3.83,3.83,0,0,0-2.32.71c-1.66,1.08-1.53,1.82.52,2.93a1.05,1.05,0,0,1,.31.3C42.27,32.47,42.09,32.91,41,32.62Z"/><path class="cls-33" d="M47.78,27.26c.57-.18,1.26.27,1.74-.33l1.12.55c1.62,2.3,1.17,3.9-1.37,4.88-.27.21-.48.49-.84.56s-.76.4-1.18.5c-1.69.18-3.39.54-5-.31L41,32.62c.89,0,.84-.46.6-1.06,1-.41,1.78.38,2.69.34a12.86,12.86,0,0,0,2.74-.09,2.76,2.76,0,0,0,1.26-.49c.24-.15.51-.24.73-.4,1.36-1,1.32-1.77-.09-2.62C48.51,28,47.84,28,47.78,27.26Z"/><path class="cls-34" d="M42.25,33.11a22.8,22.8,0,0,0,5.28,0,2.69,2.69,0,0,1,1.07-.28c.65.5.32,1.11.18,1.7-.21.4-.5.6-1,.37a19,19,0,0,1-5.92,0,.82.82,0,0,0-.22-.1c-.26-.24-.69-.21-.88-.56.22-.35,1.29,0,.77-1Z"/><path class="cls-18" d="M40.8,34.2c.32.14.8,0,.88.56A2.36,2.36,0,0,1,39.92,34Z"/><path class="cls-35" d="M50.1,34,49,34.3c-.29-1.34-.29-1.34,1.09-1.17h0A.74.74,0,0,1,50.1,34Z"/><path class="cls-36" d="M50.08,33.13c-.9-.11-1.3.25-1.09,1.17a.5.5,0,0,0,0,.25l-.33-.07c0-.54.25-1.12-.23-1.6q-.11-.09-.07-.17t.08-.08l.86-.27C49.18,33,50,32.73,50.08,33.13Z"/><path class="cls-36" d="M50.1,34v-.83c.44.86,1,0,1.46.07A1.34,1.34,0,0,1,50.1,34Z"/><path class="cls-37" d="M22.69,48l1.12.13c-1.16,1-.52,2.51-1.26,3.78-.73-1.21-1.77-2.13-2-3.54Z"/><path class="cls-32" d="M22.17,52.59c-.66,0-.74-.85-1.37-.86-1-.18-1.32-1.12-2-1.71-.06-.4-.86-.57-.37-1.15a2.07,2.07,0,0,1,2.35,1.33C21.2,51,22.09,51.59,22.17,52.59Z"/><path class="cls-17" d="M18.84,50a6.37,6.37,0,0,1,2,1.71l0,1.16A8.72,8.72,0,0,1,18.84,50Z"/><path class="cls-38" d="M38.26,39a2.51,2.51,0,0,1,1.07.59c1.44,1.05,1.38,1.92-.2,2.85-.54.34-1.17.49-1.73.79h-.29c-1.49,0-3-.05-4.48,0h-.29c-.56-.29-1.19-.44-1.73-.79-1.59-1-1.64-1.82-.18-2.83.33-.23.6-.59,1-.62a2.58,2.58,0,0,1,1.71-.39,27.45,27.45,0,0,0,3.34,0A3.35,3.35,0,0,1,38.26,39Z"/><path class="cls-39" d="M38.26,39l-1.69-.26a7.91,7.91,0,0,1-3.39,0L31.49,39c1.51-1.1,3.24-.87,4.9-.68C37,38.41,37.84,38.25,38.26,39Z"/><path class="cls-40" d="M32.63,43.25a8.46,8.46,0,0,1,4.48,0A9.49,9.49,0,0,1,32.63,43.25Z"/><path class="cls-41" d="M37.4,43.25c.41-.63,1.11-.62,1.73-.79A2.16,2.16,0,0,1,37.4,43.25Z"/><path class="cls-41" d="M30.61,42.46c.62.17,1.32.15,1.73.79A2.13,2.13,0,0,1,30.61,42.46Z"/><path class="cls-38" d="M51.48,39.05l.87,0a16,16,0,0,0,3.9,0,1.94,1.94,0,0,1,1.16.21c.35.24.78.3,1.12.54,1.67,1.21,1.59,2.47-.23,3.32a8.41,8.41,0,0,1-1.47.39,25,25,0,0,1-6.18-.34,1.91,1.91,0,0,1-1.81-1.7c-.11-.82.55-1.29,1.21-1.66.35-.22.76-.31,1.11-.55Z"/><path class="cls-42" d="M50.65,43.22c.07-.06.15-.19.2-.17,2,.55,4-.14,6,.52A8,8,0,0,1,50.65,43.22Z"/><path class="cls-43" d="M56.25,39.11a6.9,6.9,0,0,1-3.9,0L56,39Z"/><path class="cls-44" d="M51.16,39.31a1.48,1.48,0,0,1-1.11.55A1,1,0,0,1,51.16,39.31Z"/><path class="cls-44" d="M58.53,39.86a1.59,1.59,0,0,1-1.12-.54A1,1,0,0,1,58.53,39.86Z"/><path class="cls-45" d="M47.78,27.26c.32.18.64.36,1,.53.83.42,1.84.84,1.71,1.92s-1,1.58-2,1.81c-.44.37-1.08.25-1.53.61-.49,0-1,.06-1.13-.54s.4-.89.92-1,.73-.16.86-.59c.05-.22.35-.19.41-.39,0,0-.2,0-.31,0a3.22,3.22,0,0,0-1.28-.27c-.84,0-1.69,0-2.53,0a4.72,4.72,0,0,0-1.36.19,2.86,2.86,0,0,0-.84.35c-1-.23-.73-1.08-.84-1.74.7-.43,1.32-1,2.26-.84a14,14,0,0,0,3.92,0Z"/><path class="cls-46" d="M41.63,29.75a.5.5,0,0,1,.62-.52c.14.41.51.46.85.58l.4.12c1.5.5,1.71,1.3.61,2.34l-2.49-.71-.26-.15A1.37,1.37,0,0,1,41.63,29.75Z"/><path class="cls-2" d="M41.63,29.75a4.33,4.33,0,0,1-.27,1.65,1.9,1.9,0,0,1-1.8-1.71,1.53,1.53,0,0,1,1.24-1.59C41.48,28.44,40.93,29.41,41.63,29.75Z"/><path class="cls-47" d="M47,27.27a6.54,6.54,0,0,1-3.92,0A14.08,14.08,0,0,1,47,27.27Z"/><path class="cls-48" d="M44.1,32.26c.76-1.42.68-1.57-1.09-2.19a.64.64,0,0,1,.59-.31,16.63,16.63,0,0,0,4.27,0c0,.74-.14,1.28-1.08,1.1-.4-.08-.8.06-.82.52,0,.72.51.62,1,.57q.24-.17.35.1C46.25,32.56,45.16,32.19,44.1,32.26Z"/><path class="cls-49" d="M47.29,32.08l-.35-.1a3.47,3.47,0,0,1,1.48-.46C48.26,32.15,47.69,31.94,47.29,32.08Z"/><path class="cls-50" d="M48.42,32.64a.92.92,0,0,0,0,.25,1,1,0,0,1-.88.2A.8.8,0,0,1,48.42,32.64Z"/><path class="cls-51" d="M31.67,40.88a7.44,7.44,0,0,1,6.32,0C36.83,42.09,33.19,42.12,31.67,40.88Z"/><path class="cls-43" d="M33.18,38.76a13.12,13.12,0,0,1,3.39,0A4.29,4.29,0,0,1,33.18,38.76Z"/><path class="cls-15" d="M36.21,42.36H33.47v-.14h2.74Z"/><path class="cls-52" d="M55.7,40.69a2.78,2.78,0,0,1,1.75.73c-.77.7-1.81.6-2.68,1a.64.64,0,0,1-1,0c-.88-.34-1.92-.27-2.69-1a3.08,3.08,0,0,1,1.76-.72A4.12,4.12,0,0,1,55.7,40.69Z"/><path class="cls-53" d="M55.7,40.69H52.89A2,2,0,0,1,55.7,40.69Z"/><path class="cls-40" d="M53.82,42.38h1l.92.15,0,.13H52.92v-.13Z"/><path class="cls-54" d="M47.86,29.79a3.91,3.91,0,0,1-3.5.31,3.48,3.48,0,0,0-1.36,0l0,0c-.18-.56.37-.73.58-1.09a12,12,0,0,1,3.08,0c.33.31.79.3,1.17.47l.31.14Z"/><path class="cls-55" d="M43.61,29c.37.66-.58.62-.58,1.09-.32-.22-1.23.11-.78-.83C42.7,29.15,43.12,28.85,43.61,29Z"/><path class="cls-55" d="M47.86,29.47c-.44,0-1,.23-1.17-.47A1.36,1.36,0,0,1,47.86,29.47Z"/><rect class="cls-56" width="88" height="88"/></g></g></svg>