<svg xmlns="http://www.w3.org/2000/svg" viewBox="0 0 88 88"><defs><style>.cls-1{fill:#666;}.cls-2{fill:#626161;}.cls-3{fill:#d2d3d3;}.cls-4{fill:#828182;}.cls-5{fill:#575656;}.cls-6{fill:#585858;}.cls-7{fill:#cccbcb;}.cls-8{fill:#d5d4d4;}.cls-9{fill:#545454;}.cls-10{fill:#c8c7c8;}.cls-11{fill:#dddcdc;}.cls-12{fill:#c8c7c7;}.cls-13{fill:#797979;}.cls-14{fill:#e5e4e4;}.cls-15{fill:#bcbbbb;}.cls-16{fill:#949595;}.cls-17{fill:#959595;}.cls-18{fill:#949494;}.cls-19{fill:#fffeff;}.cls-20{fill:#fefefe;}.cls-21{fill:#fdfdfd;}.cls-22{fill:#fefdfe;}.cls-23{fill:#5b5c5c;}.cls-24{fill:#535252;}.cls-25{fill:gray;}.cls-26{fill:#5b5b5b;}.cls-27{fill:#c2c2c2;}.cls-28{fill:#525353;}.cls-29{fill:#535453;}.cls-30{fill:#5a5a5a;}.cls-31{fill:#606060;}.cls-32{fill:#616060;}.cls-33{fill:#545353;}.cls-34{fill:#535353;}.cls-35{fill:#555;}.cls-36{fill:#646464;}.cls-37{fill:#565656;}.cls-38{fill:#828282;}.cls-39{fill:#bdbcbc;}.cls-40{fill:#979797;}.cls-41{fill:#d9d8d8;}.cls-42{fill:#d3d3d3;}.cls-43{fill:#b9b9b9;}.cls-44{fill:#dbdbdb;}.cls-45{fill:#faf9fa;}.cls-46{fill:#fbfafa;}.cls-47{fill:#949394;}.cls-48{fill:#fafafb;}.cls-49{fill:#6b6b6b;}.cls-50{fill:#6e6d6d;}.cls-51{fill:none;}</style></defs><title>Asset 13</title><g id="Layer_2" data-name="Layer 2"><g id="Layer_1-2" data-name="Layer 1"><path class="cls-1" d="M67.69,53.41a15.14,15.14,0,0,1-11.28,9.34,22.36,22.36,0,0,1-7.5.17,1.27,1.27,0,0,1-.42-1.11c.32-.62.9-.57,1.46-.56a38.51,38.51,0,0,0,6.7-.32,6.93,6.93,0,0,1,1.44-.49c-1-1-2.48-1.08-3.35-2.21-.08-.1-.58.12-.89.19a1.28,1.28,0,0,0-1.2-.11,1,1,0,0,1-.36-.08c-.34-.23-.81-.27-1.05-.67,2.19-.72,4-1.81,4.87-4.15s-.32-5.85-2.75-6.83a15,15,0,0,0-1.76-.76c-1.62-.47-2.46.66-3.37,1.65a2.6,2.6,0,0,0-.87.83c-1.25.66-1.68,1.45-.45,2.56a.85.85,0,0,1-.09,1.43c-.52.41-.87.15-1.27-.32-2.45-2.87-2.25-2.56.1-4.66A3.92,3.92,0,0,0,47,45.88a2.76,2.76,0,0,0-3,.79,9.35,9.35,0,0,1-1.62,1.52C41.14,49,40.66,49.88,42,51c.43.39.25.87-.14,1.22a.75.75,0,0,1-1.21-.08c-.45-.52-1-1-1.36-1.53a1.49,1.49,0,0,1,.3-2.38,23.24,23.24,0,0,0,2.4-2.42c-1.19-.2-2.21-.2-3,.8a9.71,9.71,0,0,1-1.62,1.52c-1.11.83-1.79,1.64-.4,2.84.51.44.23,1-.21,1.31s-.87.23-1.18-.25a1.58,1.58,0,0,0-.17-.22c-2.16-2.3-2.17-2.3.1-4.39A11.78,11.78,0,0,0,36.91,46a35,35,0,0,1-4.1-1.08c-.46-.15-1-.17-1.21-.74C29.67,43,27.74,41.85,25.8,40.7a.59.59,0,0,1-.36-.53,1.18,1.18,0,0,1,1.39-1c.65,0,1.36.34,2-.18-.83-1.05-2.09-1.56-3.09-2.41-.63-.54-1.38-.94-2.05-1.43a4,4,0,0,0-2.58-.86,4.78,4.78,0,0,1-4.9-3.7,23.43,23.43,0,0,0,0-2.79c.22-1.54,1.32-2.39,2.49-3.19A3.53,3.53,0,0,1,21,24q8.76,0,17.52,0a6.16,6.16,0,0,0,3.7-1,2.72,2.72,0,0,0,.74-3.3,3.32,3.32,0,0,0-3.06-2.27c-.72,0-1.5.25-2.17-.28-.16-.29-.42-.54-.28-.92l.59-.55a5.83,5.83,0,0,1,4.21.61,5,5,0,0,1,1.95,7.13c-.23.43-.29.7.33.69,1.68,0,3.36.05,5-.08a2.55,2.55,0,0,0,2.31-1.53c.2-.38.29-.81.5-1.19l.07,0a.87.87,0,0,0,0-1.14,3.47,3.47,0,0,0-3.67-2.77c-.59,0-1.22.19-1.75-.28-.15-.29-.42-.55-.28-.93,1.67-1.25,5.08-.38,6.54,1.53,1.13,1.47.87,3.08.82,4.69a4,4,0,0,1-3,3.31,1.37,1.37,0,0,1-.47-.12,2.18,2.18,0,0,0-1.49-.24H30.81c-.19,0,0,.31,0,.12s0-.08.06-.08c.55-.05,1.11,0,1.67,0,5.47,0,10.94,0,16.4,0,.45,0,.94-.15,1.36.15a7.4,7.4,0,0,1-4.2.56A11.5,11.5,0,0,0,44.81,26c-4.76,0-9.52,0-14.28,0a4.23,4.23,0,0,0-1.74.43,2.88,2.88,0,0,0-1.69,3.54,2.62,2.62,0,0,0,2.47,2.41,14.55,14.55,0,0,0,3.35.1c4.81,0,9.62.14,14.43-.09a21.69,21.69,0,0,1,2.65.19,24.31,24.31,0,0,0,5.43.19,4.12,4.12,0,0,1,2.09.36c6,1.84,9.54,5.89,11,11.89a.87.87,0,0,1,.11.44,28,28,0,0,0,.06,4.78,2.06,2.06,0,0,1,0,.89C68.15,51.75,68.14,52.68,67.69,53.41Z"/><path class="cls-1" d="M41.51,60.47c-.09-.42-.08-.43-.78-.63-1.35-.37-2.48-1-2.83-2.49a3.67,3.67,0,0,1,1.4-3.81,3.46,3.46,0,0,1,4.13.38,53.81,53.81,0,0,1,4.16,4.61c.76.69,1.52,1.37.72,2.5a51.6,51.6,0,0,1-4.76,5.43c-1.83,1.72-4.17,1.29-5.4-1,0-.94,0-1.87,0-2.81A2.39,2.39,0,0,1,39.77,61,8.19,8.19,0,0,1,41.51,60.47Z"/><path class="cls-2" d="M52.45,58.19c.53-.3,1-.45,1.4.24l-.86.31a9.54,9.54,0,0,1-4.07.27.72.72,0,0,1-.63-.6c.64-1.51,1.94-.65,3-.83.48.06,1,0,1.21.61a13.42,13.42,0,0,1-2.58.17A12,12,0,0,0,52.45,58.19Z"/><path class="cls-3" d="M48.78,62.71a23.35,23.35,0,0,0,6.1.16c.51,0,1-.08,1.53-.12-.09.1-.17.28-.28.3a33.33,33.33,0,0,1-7.34.1c-.1,0-.19-.28-.29-.43A.16.16,0,0,1,48.78,62.71Z"/><path class="cls-4" d="M48.72,58.81c1.43.24,2.84-.14,4.27-.07-1.29.89-2.73.52-4.13.51C48.63,59.16,48.64,59,48.72,58.81Z"/><path class="cls-5" d="M28.79,39c0,.86-.86.48-1,.42a2,2,0,0,0-2.32.76c-.39-.87,0-1.2.84-1.2Z"/><path class="cls-6" d="M38.12,62.69a3.1,3.1,0,0,1,0,2.81A3,3,0,0,1,38.12,62.69Z"/><path class="cls-7" d="M42.3,16.28a12.91,12.91,0,0,0-4.21-.61A4.11,4.11,0,0,1,42.3,16.28Z"/><path class="cls-8" d="M48.72,58.81l.13.44c-.47.5.55,1.47-.56,1.78.72-1.11-.41-1.69-.72-2.5.23-.06.52.24.7-.12Z"/><path class="cls-9" d="M16.18,27.8a3.4,3.4,0,0,1,0,2.79A4.58,4.58,0,0,1,16.18,27.8Z"/><path class="cls-10" d="M68.47,51.12l.07.6c-.31.55-.18,1.32-.85,1.7A5.37,5.37,0,0,1,68.47,51.12Z"/><path class="cls-11" d="M51.6,45.85a2,2,0,0,1,1.76.76C52.71,46.5,52,46.47,51.6,45.85Z"/><path class="cls-12" d="M41.51,60.47a3.48,3.48,0,0,1-1.73.49C40.2,60.26,40.87,60.42,41.51,60.47Z"/><path class="cls-13" d="M52.49,20.19c.46.38,1,.76,0,1.14Z"/><path class="cls-14" d="M52.42,21.3a1.09,1.09,0,0,1-.5,1.19A1,1,0,0,1,52.42,21.3Z"/><path class="cls-15" d="M58.09,60.45a2.15,2.15,0,0,1-1.44.49C57,60.37,57.54,60.42,58.09,60.45Z"/><path class="cls-16" d="M37.51,16.22l.28.92C37.25,17,37.09,16.68,37.51,16.22Z"/><path class="cls-17" d="M46.79,16.21l.28.93C46.54,17,46.37,16.68,46.79,16.21Z"/><path class="cls-18" d="M48.78,62.71H48.5c-.22-.3-.44-.59,0-.9Z"/><path class="cls-8" d="M47.36,48.32a1,1,0,0,1,.87-.83A1.4,1.4,0,0,1,47.36,48.32Z"/><path class="cls-19" d="M45.74,35.46c.3-.24,0-.77.48-.95A45.73,45.73,0,0,1,51,34.4a1.62,1.62,0,0,1,1.14.44A62.76,62.76,0,0,1,58.6,41.4a.92.92,0,0,1,0,1.27c-.43.43-.37,1.07-.86,1.54-1.49,1.45-1.87,1.6-3.61.71a9.18,9.18,0,0,0-1.74-.77l-.84,0a37,37,0,0,1-7,0c-.07-1.45.65-2.74.86-4.13a8,8,0,0,0,.19-2.05A4.69,4.69,0,0,1,45.74,35.46Z"/><path class="cls-20" d="M57.54,48.33c-.62-.77-.67-1.22.38-1.83a8.07,8.07,0,0,0,3-4.07,7.58,7.58,0,0,0,.53-1.69l.33-2.23c.17-.31.07-1,.78-.58a13,13,0,0,1,4.32,8.89,2.21,2.21,0,0,1-1.43,2.39,18.27,18.27,0,0,1-5,1.32c-.54.1-1.13,0-1.63.31-.15.2-.31.2-.47,0L58.08,50C57.85,49.48,57.93,48.83,57.54,48.33Z"/><path class="cls-20" d="M32.25,39c-1.83-1.63-4-2.73-6-4.22.12-.75.74-.63,1.21-.63,5,0,10.1-.1,15.14,0,1,.35.43.79,0,1.18A62.2,62.2,0,0,1,37.64,40c-1,.8-1.89,1.66-2.89,2.44a1.53,1.53,0,0,1-1.8.27L29.76,41l.08-.27a10.37,10.37,0,0,0,2,0c.89-.18,1.52-.62.61-1.57C32.36,39.17,32.28,39.15,32.25,39Z"/><path class="cls-21" d="M20.37,25.84h5.87c-.21.86-.92,1.24-.77,2,0,.93,0,1.86,0,2.79-.19.75.61,1.11.7,1.88-1.92,0-3.81.12-5.69,0a2.9,2.9,0,0,1-2.69-2.6,3.11,3.11,0,0,1,1.85-3.63l.74-.37Z"/><path class="cls-22" d="M66,50.92c.28,0,.73-.21.53.39s-.39,1-.59,1.52A4.7,4.7,0,0,0,65.42,54a19.62,19.62,0,0,1-2,2.85c-1.87,2.63-4.33,2-6.53.84-.66-.33-.92-.76-.32-1.4a1.53,1.53,0,0,0,.44-.7c.45-2.71,2.35-3.46,4.75-3.56a1.67,1.67,0,0,1,1.91-.35h.54C64.77,51.3,65.48,51.34,66,50.92Z"/><path class="cls-20" d="M35.93,44.06c-.51-.45-1.32-.2-1.79-.77.16-1,1.11-1.15,1.7-1.67,2.47-2.14,4.76-4.47,7.37-6.44.24-.18.41-.55.82-.37L44,38.43a14.69,14.69,0,0,1-.74,3.17A5.06,5.06,0,0,1,42,44.08,21.22,21.22,0,0,1,35.93,44.06Z"/><path class="cls-20" d="M55.07,34.52A11.72,11.72,0,0,1,60,36c.59.72.18,1.48.09,2.23a8.43,8.43,0,0,1-.91,3.37.37.37,0,0,1-.38-.08c-2.23-2.18-4.32-4.47-6.59-6.83A5.3,5.3,0,0,1,55.07,34.52Z"/><path class="cls-23" d="M51,25.47l-.75.11H30v-.32c2.35,0,4.71.07,7.06,0,4.32-.16,8.65.2,13-.1A1.32,1.32,0,0,1,51,25.47Z"/><path class="cls-24" d="M20.39,24.49h20.2v.12H20.39Z"/><path class="cls-25" d="M44,34q0,.14,0,.27a3.08,3.08,0,0,1-1.51.13l-15,0c-.53,0-1.15-.23-1.52.4-.34-.2-.56-.43-.29-.84a2.79,2.79,0,0,1,1.38-.12H42.63A2.37,2.37,0,0,1,44,34Z"/><path class="cls-26" d="M44,34,25.72,34a1.81,1.81,0,0,1,.61-.26q8.7,0,17.39,0a.4.4,0,0,1,.25.07S44,33.91,44,34Z"/><path class="cls-27" d="M26,34.81c.14-.91.87-.53,1.33-.53,5.55,0,11.11,0,16.66,0a.37.37,0,0,1,0,.27l-.86,0-16,0c-.31,0-.67-.08-.89.26l-.14,0Z"/><path class="cls-28" d="M46.73,33.1H29.47V33H46.79Z"/><path class="cls-29" d="M50.18,32.82a14.75,14.75,0,0,1,5.38,0A9.94,9.94,0,0,1,50.18,32.82Z"/><path class="cls-30" d="M46.3,33.72h8.07v.17H46.3Z"/><path class="cls-31" d="M20.39,25.83l-1.2-.08c2.46-1.16,4.73-.08,7.23-.7a4.26,4.26,0,0,1-2.35.5c-1.23.08-2.51-.39-3.7.28Z"/><path class="cls-32" d="M63.71,51.67A7,7,0,0,1,61.8,52H58.37c1.48-.38,3-.12,4.44-.83C63.16,51,63.51,51.31,63.71,51.67Z"/><path class="cls-33" d="M44.6,44.09c2.33-.06,4.67-.13,7,0-2.32.55-4.67.18-7,.19,0,0,0-.07,0-.11A.4.4,0,0,1,44.6,44.09Z"/><path class="cls-34" d="M35.93,44.06l6.06,0c.15.26,0,.32-.22.32-2,0-3.91,0-5.86,0C35.21,44.36,35.76,44.17,35.93,44.06Z"/><path class="cls-35" d="M68.46,45.25a15.29,15.29,0,0,1,0,5A10.85,10.85,0,0,1,68.46,45.25Z"/><path class="cls-28" d="M20.16,32.94H26v.13H20.14Z"/><path class="cls-24" d="M49.86,24.63H44.3V24.5h5.55Z"/><path class="cls-36" d="M32.25,39a.23.23,0,0,1,.22.09c.09.76-.18,1.14-1,1.08-.68-.05-1.37,0-2.21,0a2.42,2.42,0,0,1,2-.33C31.88,39.88,32.15,39.61,32.25,39Z"/><path class="cls-16" d="M43.21,41.6A14.15,14.15,0,0,1,44,38.43,4.4,4.4,0,0,1,43.21,41.6Z"/><path class="cls-35" d="M25.46,30.59a4.67,4.67,0,0,1,0-2.79A3.39,3.39,0,0,1,25.46,30.59Z"/><path class="cls-37" d="M45.74,35.46l-.09,2.44c-.49-1.09-.15-2.22-.07-3.35Z"/><path class="cls-38" d="M60.1,38.21,60,36C61.2,36.67,60.37,37.45,60.1,38.21Z"/><path class="cls-37" d="M58.41,50.84h.47l1.47.11a3.59,3.59,0,0,1-2,.13s0-.08,0-.11A.39.39,0,0,1,58.41,50.84Z"/><path class="cls-39" d="M66,50.92c-.36.78-1.14.56-1.75.76C64.69,51.11,65.37,51.08,66,50.92Z"/><path class="cls-40" d="M52.44,44.16a2,2,0,0,1,1.74.77C53.56,44.76,52.86,44.78,52.44,44.16Z"/><path class="cls-35" d="M59.85,59.1h1.78A2.19,2.19,0,0,1,59.85,59.1Z"/><path class="cls-41" d="M57.54,48.33c.71.4.57,1.06.54,1.7A3.68,3.68,0,0,1,57.54,48.33Z"/><path class="cls-42" d="M61.46,40.74c0,.63.17,1.29-.53,1.69A3.15,3.15,0,0,1,61.46,40.74Z"/><path class="cls-43" d="M62.58,37.93c-.46-.07-.54.37-.78.58,0-.37-.29-.87.25-1.06C62.29,37.36,62.56,37.58,62.58,37.93Z"/><path class="cls-44" d="M65.42,54a1,1,0,0,1,.51-1.15A1.5,1.5,0,0,1,65.42,54Z"/><path class="cls-45" d="M45.1,62.11c-.93,1-1.85,2.08-2.81,3.08a1.37,1.37,0,0,1-1.77.37,1.69,1.69,0,0,1-1-1.57,1.55,1.55,0,0,1,1.11-1.44c1.34-.58,2.84-.44,4.17-1C45.29,61.55,45.37,61.75,45.1,62.11Z"/><path class="cls-46" d="M45.33,58.64c-1.77-.1-3.5,0-5-.89-1-.57-.87-1.47-.41-2.28a1.52,1.52,0,0,1,2.41-.16C43.37,56.36,44.33,57.52,45.33,58.64Z"/><path class="cls-47" d="M45.1,62.11a.57.57,0,0,0-.25-.6c.22-.22.54-.29.69,0S45.42,62,45.1,62.11Z"/><path class="cls-48" d="M44.85,28.68a1.88,1.88,0,0,1,2.5-2c.3.07.54.15.56.5a.5.5,0,0,1-.58.6A1.11,1.11,0,0,0,46,28.84c-.07.45.23,1.21-.6,1.14S45,29.09,44.85,28.68Z"/><path class="cls-1" d="M52.45,58.19a4.34,4.34,0,0,1-3.15,0h3.15Z"/><path class="cls-49" d="M35.55,35.4c0,.37.26.75,0,1.12a3.27,3.27,0,0,1-2,0l0,0c-.15-.29-.38-.55-.26-.92h0A1.82,1.82,0,0,1,35.55,35.4Z"/><path class="cls-17" d="M35.55,35.4a3.92,3.92,0,0,0-2.27.25C33.93,34.58,34.71,34.68,35.55,35.4Z"/><path class="cls-50" d="M33.57,36.53l2,0A1.43,1.43,0,0,1,33.57,36.53Z"/><path class="cls-17" d="M33.28,35.65l.26.92C33,36.38,32.86,36.1,33.28,35.65Z"/><rect class="cls-51" width="88" height="88"/></g></g></svg>