<svg xmlns="http://www.w3.org/2000/svg" viewBox="0 0 88 88"><defs><style>.cls-1{fill:#666;}.cls-2{fill:#656565;}.cls-3{fill:#606060;}.cls-4{fill:#686868;}.cls-5{fill:#d9d9d9;}.cls-6{fill:#faf8f8;}.cls-7{fill:#bdbdbd;}.cls-8{fill:#d2d1d1;}.cls-9{fill:#d9d8d9;}.cls-10{fill:#c8c7c7;}.cls-11{fill:#fdfdfd;}.cls-12{fill:#fefefe;}.cls-13{fill:#fff;}.cls-14{fill:#fdfcfc;}.cls-15{fill:#f1f1f1;}.cls-16{fill:#f5f4f4;}.cls-17{fill:#f5f4f5;}.cls-18{fill:#fcfcfc;}.cls-19{fill:#8d8e8f;}.cls-20{fill:#535353;}.cls-21{fill:#626261;}.cls-22{fill:#5b5b5b;}.cls-23{fill:#f8f7f7;}.cls-24{fill:#5b5c5c;}.cls-25{fill:#555;}.cls-26{fill:#5c5c5c;}.cls-27{fill:#636262;}.cls-28{fill:#5d5d5d;}.cls-29{fill:#565656;}.cls-30{fill:#545353;}.cls-31{fill:#919191;}.cls-32{fill:#585858;}.cls-33{fill:#545454;}.cls-34{fill:#525252;}.cls-35{fill:#525151;}.cls-36{fill:#535252;}.cls-37{fill:#9d9d9d;}.cls-38{fill:#5a5a5b;}.cls-39{fill:#efeff0;}.cls-40{fill:#d3d3d3;}.cls-41{fill:#d4d4d4;}.cls-42{fill:#d4d3d3;}.cls-43{fill:#d4d3d4;}.cls-44{fill:#d1d1d1;}.cls-45{fill:none;}</style></defs><title>Asset 2</title><g id="Layer_2" data-name="Layer 2"><g id="Layer_1-2" data-name="Layer 1"><path class="cls-1" d="M71.76,54c-1.69,3.47-4.69,5.42-8,7-.71.34-1.45.59-2.18.89-.5.33-1.13.27-1.65.56a24.77,24.77,0,0,0-3.71,1.09c-1.6.76-3.4.59-5,1.13a7,7,0,0,1-1.68.11,5.41,5.41,0,0,1-1.21-.11,63.54,63.54,0,0,0-9.11-.07.84.84,0,0,1-.7-.15,15.86,15.86,0,0,1-3.68-.58,9.91,9.91,0,0,1,2.8-.17c-.93.12-1.88-.2-2.8.17C28.18,63,21.87,61.4,17.21,56.1A7.46,7.46,0,0,1,15.89,54c-.28-.34-.28-.8-.47-1.18-.05-.18-.12-.35-.16-.54-.61-2.69-.32-3.06,2.4-3.06.89,0,2,.3,2.63-.09.95-.56-.15-1.5-.15-2.32A10.56,10.56,0,0,1,21,42.2c.2-.44.58-.74.81-1.16a14.8,14.8,0,0,1,2.54-2,2.23,2.23,0,0,1,1.29-.44,1.6,1.6,0,0,1,.4,0,15.65,15.65,0,0,0,3.41,0,1.38,1.38,0,0,1,.41,0,2.78,2.78,0,0,1,1.52.53c1.16,1,2.54,1.78,3.09,3.34a17.27,17.27,0,0,1,.38,4.43,3.24,3.24,0,0,1-.33,1.62c-.16.25.24,0,.28.13.58.85,1.33.85,1.92,0,.62,0,.46.42.44.76a.48.48,0,0,1-.56.48,7.5,7.5,0,0,1-1.39,0c.62-.2,1.65.51,2.25-.77.15-.31.69-.13,1,.15s.15-.27.34-.21a7.29,7.29,0,0,1,3-.24c1.81,0,3.62,0,5.43,0,1.26,0,1.66-.51,1.62-1.76a1.81,1.81,0,0,0-1.66-.14c-.86.17-1.39,1.05-2.32,1.06A4.55,4.55,0,0,0,43,48c-1.1.22-1.61-.9-2.52-1.1a2.61,2.61,0,0,0-1.71,0,1.34,1.34,0,0,1-.78-.06,1.81,1.81,0,0,1-1.2-2.18,4.53,4.53,0,0,0,0-1.36c1-3.12,3.78-4.94,7.58-5,.24.44,1.2-.41,1.12.62-1,.1-2,0-2.73,0a12.84,12.84,0,0,0,3-.15,1.13,1.13,0,0,1,1.26.24c2.93,1.27,5.67,4.78,4,10.15.67-.12,1.47.64,1.89-.47-.45-1.1,0-2.33-.5-3.43C52.22,42.62,55,39,57.84,38.76c1.1.43,2.26,0,2.83.13a9,9,0,0,1-2.82-.13c2.19-1.07,4.15-.22,6.08.76a3.25,3.25,0,0,0,1,.5c.35.1.36.5.61.69a7.85,7.85,0,0,1,1.58,7.81c-.2.59,0,.75.57.74,1.07,0,2.15,0,3.22,0,1.26-.08,1.83.38,1.69,1.69a8.25,8.25,0,0,1-.32,1.92C72,53.22,72,53.67,71.76,54Z"/><path class="cls-1" d="M46.62,38.26c-.58-1.72-.22-3.5-.23-5.25a2.85,2.85,0,0,0-1.11-2.59c-1.93-1.43-1.33-3.74-1.82-5.66-.13-.5.44-.86,1.05-.86,1.78,0,3.56,0,5.34,0,.83,0,1.24.45,1.11,1.24-.21,1.34-.51,2.66-.78,4a1.92,1.92,0,0,1-1,1.25A2.37,2.37,0,0,0,48,32.73c0,1.84.37,3.71-.24,5.53A.88.88,0,0,1,46.62,38.26Z"/><path class="cls-2" d="M38.77,49.17c0,.34-.14.55-.51.27s-.6-.33-.75-.06c-.75,1.33-1.94.37-2.91.39.54,0,1.08,0,1.62,0,.86,0,1.16-.36.54-1.12a6.16,6.16,0,0,1,0-5.36.82.82,0,0,1,.39,1,2.1,2.1,0,0,0,.77,2.45A4.39,4.39,0,0,1,38.77,49.17Z"/><path class="cls-3" d="M34.84,48.65c-.38,0-.17.77-.59.58s0-.52,0-.81a8.86,8.86,0,0,0-.11-5c-.17-.46-.34-.8.33-.91l.05,0a12.9,12.9,0,0,1,.78,2C35.29,45.87,35.7,47.34,34.84,48.65Z"/><path class="cls-1" d="M26.68,38.27l1.38-.05.76,0c.27.27.88-.17,1,.47l-.14.12a18,18,0,0,1-3.76,0l-.13-.12c.07-.61.68-.19.92-.47Z"/><path class="cls-4" d="M52.31,45.27c.92.31.42,1.08.5,1.64a12.92,12.92,0,0,1,0,1.78C52.07,47.64,52.27,46.44,52.31,45.27Z"/><path class="cls-5" d="M46.62,38.26h1.15c0,.58-.61.43-.82.75l-1.15-.23q-.14.19-.2,0l-1.26-.48C45.1,37.87,45.86,38.78,46.62,38.26Z"/><path class="cls-6" d="M29.79,38.74l-1-.47a2.49,2.49,0,0,1,2.6.86Z"/><path class="cls-6" d="M26.68,38.26l-.92.47L24.4,39C24.95,38.16,25.85,38.31,26.68,38.26Z"/><path class="cls-7" d="M35.35,44.45a4.22,4.22,0,0,1-.78-2A2.34,2.34,0,0,1,35.35,44.45Z"/><path class="cls-8" d="M59.92,62.47a2.86,2.86,0,0,1,1.65-.56C61.18,62.58,60.53,62.46,59.92,62.47Z"/><path class="cls-9" d="M15.41,52.84A2,2,0,0,1,15.89,54C15.2,53.83,15.39,53.31,15.41,52.84Z"/><path class="cls-10" d="M21.86,41c0,.55-.43.85-.81,1.16C21,41.61,21.42,41.31,21.86,41Z"/><path class="cls-11" d="M40.16,62.67H39.6c-1.89-.4-3.85-.35-5.74-.76a29.93,29.93,0,0,1-11.13-3.49c.25-.74.9-.58,1.42-.58q10.55,0,21.1,0a2.34,2.34,0,0,1,1.59.44,2.62,2.62,0,0,0,3.26.15,4.53,4.53,0,0,1,2.41-.61c3.56,0,7.13,0,10.69,0,.6,0,1.36-.26,1.7.58a29.77,29.77,0,0,1-6.72,2.65c-.82.42-1.77.41-2.62.74a33.92,33.92,0,0,0-5.33.88,2.13,2.13,0,0,1-1.62.06l-7-.06c.17-1.31,1.49-1.69,2-2.55C42.62,61.07,41.69,62.28,40.16,62.67Z"/><path class="cls-12" d="M19.61,56a6.53,6.53,0,0,1-2.26-3.4c-.4-1,.05-1.5,1.08-1.52,1.78,0,3.55,0,5.33,0H43.13a5.65,5.65,0,0,1,1.54.1c.39.11.78.35.42.78a4.36,4.36,0,0,0-.79,3.58.69.69,0,0,1-.21.51c-5,.16-10.08.06-15.11.06C25.85,56.09,22.73,56.22,19.61,56Z"/><path class="cls-12" d="M70.29,52.62A5.12,5.12,0,0,1,67.76,56c-4.52.19-9,0-13.55.08H51.41a1,1,0,0,1-.67-.12,1.83,1.83,0,0,0-2.68.12c-.62-.1-1.29.22-1.87-.23-.35-1-.41-1.88.81-2.28a.9.9,0,0,0,.57-1.25c-.28-1,.28-1.23,1.09-1.26,1,0,2,0,3,0,5.72,0,11.44,0,17.16,0C70.34,51.09,70.45,51.24,70.29,52.62Z"/><path class="cls-13" d="M70.29,52.62c.05-.78-.17-1.17-1.09-1.17-7.11,0-14.22,0-21.36,0,0,1,.92,2.29-1,2.62-.88.14-.29,1.21-.44,1.83a2.91,2.91,0,0,1-2.27,0c-.46-1.59-.52-3.11,1-4.44H32.76c-4.72,0-9.45,0-14.17,0-.88,0-1.35.21-1.23,1.16A3,3,0,0,1,16.82,51c.29-.49.76-.24,1.14-.25,6.13-.16,12.27,0,18.4-.09,10.87-.08,21.75,0,32.62-.06.62,0,1.33-.26,1.83.38A2.87,2.87,0,0,1,70.29,52.62Z"/><path class="cls-11" d="M44.31,40c1.58.54,3.19,1,4.2,2.53.15.23.27.48.42.71.45.72.39,1.4-.4,1.73a1.1,1.1,0,0,1-1.63-.79c-.16-.62-.35-1.26-1.15-1.09s-.62.8-.64,1.37a3.87,3.87,0,0,1-.23,1.22,1.06,1.06,0,0,1-1.11.69,1.12,1.12,0,0,1-1-.68A3.19,3.19,0,0,1,42.53,44c0-.54-.22-.93-.76-1a.83.83,0,0,0-.9.7c-.06.22-.16.44-.24.66-.28.78-1,.76-1.51.54a1,1,0,0,1-.53-1.49,5.85,5.85,0,0,1,3.7-3.13L43.34,40A.65.65,0,0,1,44.31,40Z"/><path class="cls-11" d="M60.31,40a7.17,7.17,0,0,1,4.4,2.71c.33.49.78,1,.37,1.8-.29.53-.7.52-1.17.53-.68,0-.86-.51-1-1s-.41-1.12-1.1-1-.69.76-.66,1.35A3.08,3.08,0,0,1,61,45.5a1.12,1.12,0,0,1-1.14.85,1.1,1.1,0,0,1-1.1-.9,5.58,5.58,0,0,1-.15-1.39c0-.54-.2-.95-.74-1a.85.85,0,0,0-1,.79c-.21,1-.91,1.54-1.81,1.07s-.56-1.47-.1-2.17a7.69,7.69,0,0,1,3.27-2.5C58.89,39.84,59.54,39.41,60.31,40Z"/><path class="cls-14" d="M25,40.8,27.31,40a.55.55,0,0,1,.93,0c1.8.54,3.51,1.23,4.52,3,.29.5.62,1,.17,1.68s-.79.39-1.24.38c-.62,0-.74-.54-.85-1-.17-.6-.41-1.11-1.1-1s-.67.76-.67,1.33a3.38,3.38,0,0,1-.16,1.1,1.13,1.13,0,0,1-1.14.86,1.11,1.11,0,0,1-1.11-.89,6.55,6.55,0,0,1-.16-1.52.81.81,0,0,0-.7-.89.85.85,0,0,0-1,.62,3.16,3.16,0,0,1-.5,1.13,1.16,1.16,0,0,1-1.43.07,1.07,1.07,0,0,1-.4-1.35,7.17,7.17,0,0,1,1.35-1.9A9.59,9.59,0,0,1,25,40.8Z"/><path class="cls-15" d="M64.91,58.42a5.21,5.21,0,0,0-2.48-.18c-3.42,0-6.84,0-10.26,0a2,2,0,0,0-1.36.22c-1.49,1.17-3,1.7-4.4-.08-.11-.14-.44-.13-.66-.13H23.25a1.66,1.66,0,0,0-.51.18c-.39-.09-.44-.45-.59-.74a1.11,1.11,0,0,1,.8-.16H46.11a1.25,1.25,0,0,1,.81.14h2a1.65,1.65,0,0,1,1.56-.29,6.36,6.36,0,0,0,2.08.16H64.13c.45,0,.93-.14,1.36.15C65.36,58,65.29,58.32,64.91,58.42Z"/><path class="cls-16" d="M38.77,49.17a7.75,7.75,0,0,1-.85-2.47l.85-.06.16.07a1.36,1.36,0,0,0,1.32,0l.16-.07c1.13-.2,1.43,1.34,2.53,1.21.66-.06,1.33-.07,2-.08,1,0,1.22-1.36,2.28-1.14l.16.06a1.55,1.55,0,0,0,1.32,0l.16-.05c.28.12.8-.26.8.43a2.35,2.35,0,0,1-2.1,2.17Z"/><path class="cls-17" d="M32.82,46.65c.28.11.8-.24.79.44a2.27,2.27,0,0,1-2.13,2.16c-2.62,0-5.23,0-7.85,0-.81,0-2-1.71-1.67-2.43.14-.31.5-.11.76-.18l.16.07a1.36,1.36,0,0,0,1.32,0l.16-.07c1.13-.2,1.43,1.35,2.53,1.21.66-.06,1.32-.07,2-.08,1,0,1.21-1.37,2.28-1.13l.17,0a1.43,1.43,0,0,0,1.32,0Z"/><path class="cls-18" d="M56.47,46.66a1.44,1.44,0,0,1,1.08.4c1.58,1.47,3.05,1.47,4.62,0a1.4,1.4,0,0,1,1.08-.41l.16.06a1.39,1.39,0,0,0,1.33,0l.16-.06c.47,0,1-.05.71.72l-.71,1.79a1.27,1.27,0,0,1-1,.32h-8a1.27,1.27,0,0,1-1-.33.3.3,0,0,0-.07-.23c-.22-.25-.29-.58-.51-.83-.07-.59-.77-1.43.58-1.45l.16.06a1.4,1.4,0,0,0,1.33,0Z"/><path class="cls-19" d="M50.29,57.66H48.88v-.84a.48.48,0,0,1-.23-.3c-.48-.44-1.07-.25-1.61-.25l-25.81,0c-.54,0-1.13.18-1.62-.23L40.46,56l3.64,0h4.22a2.48,2.48,0,0,1,2.54,0l15.37,0c.51,0,1,0,1.53.06-.44.39-1,.22-1.48.22H52c-.5,0-1-.16-1.47.24q0,.18,0,.35l0,.21A.65.65,0,0,1,50.29,57.66Z"/><path class="cls-20" d="M70.82,51C64.63,51,58.44,51,52.25,51q-17,0-34,0c-.47,0-.93,0-1.4.07.69-.81,1.61-.28,2.42-.4a10.53,10.53,0,0,1,1.5,0,13.32,13.32,0,0,1,3.33-.12c3.59,0,7.18,0,10.77,0a2.75,2.75,0,0,1,1.37.12h.28a2,2,0,0,1,1.1-.13H69.75a1.76,1.76,0,0,1,1.09.14Z"/><path class="cls-21" d="M70.84,50.63H36.5c.42-.45,1-.27,1.46-.27q15.71,0,31.43,0C69.88,50.35,70.43,50.15,70.84,50.63Z"/><path class="cls-22" d="M48.65,56.51l.23.3H19.66v-.3Z"/><path class="cls-20" d="M46.92,57.66l-24.77,0c.35-.46.85-.3,1.3-.3H45.61C46.06,57.38,46.56,57.21,46.92,57.66Z"/><path class="cls-4" d="M54.82,49.16q5,.21,10.1,0c0,.6-.44.61-.88.61H55.7C55.26,49.77,54.84,49.76,54.82,49.16Z"/><path class="cls-22" d="M50.52,56.85c-.18-.12-.19-.24,0-.35H68v.35Z"/><path class="cls-20" d="M50.29,57.66a.63.63,0,0,1,.25-.61,2.85,2.85,0,0,0,1.76.32c3.92,0,7.84,0,11.76,0,.48,0,1-.21,1.43.3Z"/><path class="cls-21" d="M36.22,50.61H20.74c.28-.35.67-.27,1-.27H35.19C35.55,50.34,35.94,50.27,36.22,50.61Z"/><path class="cls-23" d="M40.16,62.67c1.6-1,2.79-2.41,4.31-3.5-.61,1.48-2,2.26-2.89,3.52Z"/><path class="cls-24" d="M23.08,49.82h9.39V50H23Z"/><path class="cls-22" d="M39.41,49.81h8.83V50H39.35Z"/><path class="cls-25" d="M48.31,64.38a91.83,91.83,0,0,1-9.26,0c.55-.52,1.2-.26,1.83-.25,2,0,4.08,0,6.11,0C47.44,64.14,47.93,64,48.31,64.38Z"/><path class="cls-23" d="M33.87,61.91c1.73,0,3.43.41,5.17.26.33,0,.51.19.57.5A18.39,18.39,0,0,1,33.87,61.91Z"/><path class="cls-26" d="M40,63.36h7v.14h-7Z"/><path class="cls-27" d="M60.31,40l-2.07.25-.81-.09a4.38,4.38,0,0,1,4.17-.34Z"/><path class="cls-22" d="M66.92,49.85h5V50h-5Z"/><path class="cls-22" d="M15.7,49.84h4.71V50H15.7Z"/><path class="cls-28" d="M28.24,40h-.93c-.34-.14-.75.08-1.15-.33a7.22,7.22,0,0,1,3.24.18Z"/><path class="cls-29" d="M45.6,38.74a.18.18,0,0,1,.2,0c-1.19.63-2.43.15-3.66,0Z"/><path class="cls-29" d="M25.89,38.85h3.76A6.48,6.48,0,0,1,25.89,38.85Z"/><path class="cls-29" d="M57.85,38.76h3.63c-1.22.16-2.45.65-3.64,0Z"/><path class="cls-20" d="M44.94,47.78a2.09,2.09,0,0,1-2,.08A1.59,1.59,0,0,1,44.94,47.78Z"/><path class="cls-30" d="M28.89,47.78a2.06,2.06,0,0,1-2,.08A1.6,1.6,0,0,1,28.89,47.78Z"/><path class="cls-31" d="M55.57,61.81a6.08,6.08,0,0,1,2.62-.74C57.47,61.85,56.48,61.69,55.57,61.81Z"/><path class="cls-32" d="M34.78,63.87c1-.69,2.06-.08,3.08-.35v.35H34.78Z"/><path class="cls-33" d="M48.62,62.75l1.62-.06,1.19.13C50.48,62.93,49.53,63.25,48.62,62.75Z"/><path class="cls-20" d="M44.31,40h-1c-.13-.08-.39-.25-.33-.26a7,7,0,0,1,1.61,0C44.7,39.72,44.43,39.89,44.31,40Z"/><path class="cls-34" d="M59.34,47.57h1.12C60.07,47.94,59.7,47.75,59.34,47.57Z"/><path class="cls-35" d="M54.82,46.65a1.28,1.28,0,0,1,1.66,0l0,.07a1.69,1.69,0,0,1-1.73,0Z"/><path class="cls-36" d="M47.22,46.64a1.3,1.3,0,0,1,1.65,0l0,.07a1.86,1.86,0,0,1-1.72,0Z"/><path class="cls-34" d="M38.78,46.64a1.3,1.3,0,0,1,1.65,0l0,.07a1.63,1.63,0,0,1-1.72,0Z"/><path class="cls-20" d="M31.17,46.65a1.29,1.29,0,0,1,1.65,0l0,.07a1.72,1.72,0,0,1-1.72,0Z"/><path class="cls-35" d="M22.73,46.64a1.3,1.3,0,0,1,1.65,0l0,.07a1.64,1.64,0,0,1-1.72,0Z"/><path class="cls-37" d="M25,40.8c-.33.35-.6.79-1.15.82C24.1,41.17,24.4,40.78,25,40.8Z"/><path class="cls-36" d="M63.26,46.65a1.29,1.29,0,0,1,1.65,0l0,.07a1.68,1.68,0,0,1-1.73,0Z"/><path class="cls-4" d="M54.24,48.1a.91.91,0,0,1,.51.83C54.2,48.88,54.24,48.48,54.24,48.1Z"/><path class="cls-17" d="M48.88,25.6a5.7,5.7,0,0,1-.35,2.75,1.36,1.36,0,0,1-2.66,0,5.2,5.2,0,0,1-.32-2.75A6.89,6.89,0,0,1,48.88,25.6Z"/><path class="cls-38" d="M44.18,24.5h6.08v.14H44.15Z"/><path class="cls-36" d="M48.88,25.6H45.55A3.86,3.86,0,0,1,48.88,25.6Z"/><path class="cls-39" d="M50.86,55.91a8.29,8.29,0,0,1-2.54,0c0-.43,0-1,.56-.94C49.59,55.08,50.55,54.89,50.86,55.91Z"/><path class="cls-40" d="M38.74,46.71h1.72Q39.6,47.89,38.74,46.71Z"/><path class="cls-41" d="M47.18,46.71h1.72C48.33,47.31,47.76,47.59,47.18,46.71Z"/><path class="cls-42" d="M22.69,46.71h1.72C23.84,47.49,23.27,47.5,22.69,46.71Z"/><path class="cls-43" d="M31.14,46.72h1.72C32.29,47.66,31.72,47.31,31.14,46.72Z"/><path class="cls-41" d="M63.22,46.72H65C64.38,47.5,63.8,47.49,63.22,46.72Z"/><path class="cls-44" d="M54.78,46.71h1.73C55.93,47.5,55.35,47.51,54.78,46.71Z"/><rect class="cls-45" width="88" height="88"/></g></g></svg>