<svg xmlns="http://www.w3.org/2000/svg" viewBox="0 0 88 88"><defs><style>.cls-1{fill:#666;}.cls-2{fill:#656565;}.cls-3{fill:#676767;}.cls-4{fill:#676666;}.cls-5{fill:#fcfcfc;}.cls-6{fill:#686868;}.cls-7{fill:#585858;}.cls-8{fill:#555454;}.cls-9{fill:#6d6c6c;}.cls-10{fill:#605f5f;}.cls-11{fill:#878686;}.cls-12{fill:#cccbcb;}.cls-13{fill:#535353;}.cls-14{fill:#e2e2e2;}.cls-15{fill:#cdcccc;}.cls-16{fill:#787878;}.cls-17{fill:#ececec;}.cls-18{fill:#7c7d7d;}.cls-19{fill:#dcdbdb;}.cls-20{fill:#545353;}.cls-21{fill:#8c8c8c;}.cls-22{fill:#565555;}.cls-23{fill:#ddd;}.cls-24{fill:#d6d6d6;}.cls-25{fill:#d2d3d3;}.cls-26{fill:#cfcece;}.cls-27{fill:#d6d5d5;}.cls-28{fill:#d4d3d3;}.cls-29{fill:#555;}.cls-30{fill:#545454;}.cls-31{fill:#525252;}.cls-32{fill:#fdfdfd;}.cls-33{fill:#575757;}.cls-34{fill:#e3e2e2;}.cls-35{fill:#fefdfd;}.cls-36{fill:#c4c3c3;}.cls-37{fill:none;}</style></defs><title>Asset 10</title><g id="Layer_2" data-name="Layer 2"><g id="Layer_1-2" data-name="Layer 1"><path class="cls-1" d="M39.49,65.75a5.67,5.67,0,0,0,1.92-1.37,1.15,1.15,0,0,1,1.24-.4c4.27.69,5.55-.17,6.45-4.29a1.13,1.13,0,0,1,.75-.93,4.76,4.76,0,0,0,3.51-4.54c0-.11.16-.21.25-.31.28.23.51-.16.78-.05s0-.3,0-.11-.1.1-.21.09-.37,0-.51-.13c.74-.67,2-.26,2.63-1.26a4.34,4.34,0,0,0,.75-1.28,1.14,1.14,0,0,0,0-1.42,1.66,1.66,0,0,1,.5-2.39,3.05,3.05,0,0,0,.85-2.66c.4.4.84-.06,1.25,0,.08.44,0,.88.06,1.32-.06-.54,0-1.08-.06-1.62a.58.58,0,0,1,.22-.37c1.14.88.61,2,.35,3A18.88,18.88,0,0,1,59,49.42a3.72,3.72,0,0,0-.11,2.28,4.16,4.16,0,0,1-2.79,3.42c-1.17.16-1,1.25-1.35,2a4.77,4.77,0,0,1-.41.87,7,7,0,0,1-1.89,1.62,2.44,2.44,0,0,0-1.92,2.08,5.91,5.91,0,0,1-3.7,4c-1.36-.25-2.75-.06-4.12-.2-.34,0-.77,0-.63.57-.16.58-.71.62-1.14.82A21.68,21.68,0,0,1,37.3,67c-.14,0-.32,0-.4-.07a3.61,3.61,0,0,0-3.5-.82,6.09,6.09,0,0,1-4.2-1.16c-.28-.29-.48-.65-.89-.78a6,6,0,0,1-1.14-2.21,9.32,9.32,0,0,1,0-4.14,5.39,5.39,0,0,1,4.53-4.12c.54.37,1.16,0,1.46.12-.31-.06-.92.18-1.47-.12a1.45,1.45,0,0,1,.51-.19,2.1,2.1,0,0,0,2.44-1.62c.29-.95,1.25-1.44,2.12-1.91.55-.3,1-.24,1.3.32a.79.79,0,0,1-.42,1.25,2.89,2.89,0,0,0-1.85,2.91c0,.65-.46,1-1.13,1-4.38,0-4.92.34-6.28,4.27-.17-.13-.18-.31-.13-.56a2.46,2.46,0,0,0,0,.69,2.66,2.66,0,0,1,0,.28c.11,0,.07-.21.19-.23a20,20,0,0,0,.86,2.33,4.21,4.21,0,0,0,4.61,2.06,2.93,2.93,0,0,1,3.9,1.24C38.47,66.18,38.68,66.22,39.49,65.75Z"/><path class="cls-1" d="M59.55,44.69c-.55.38,0,1.11-.52,1.55-.67-.33,0-1.22-.63-1.54h0a4.46,4.46,0,0,1-.28-1.61,2.18,2.18,0,0,1,.55-1.51l0-1.38a5.35,5.35,0,0,0-.72-1c0-.55-.68-.4-.89-.75A.92.92,0,0,1,57,37.36a1.57,1.57,0,0,0,0-2.46,1.54,1.54,0,0,0-2.34.26,1.05,1.05,0,0,1-1.69,0c-1-1-1.87-.78-2.66.28a1.23,1.23,0,0,0,0,1.42,1.12,1.12,0,0,0,.1.25.76.76,0,0,1,0,.88,5.19,5.19,0,0,1-.55.39c-2.08,1.1-2.41,1.78-2,4.08a.74.74,0,0,1,.1.73c-.43.74-1.32.21-1.85.66-1.41.32-1.94,1.49-2.49,2.63-.23.08-.24.27,0,1.06,0,.61-.52.47-.85.62-1.51.29-1.85-.25-1.25-2a4.1,4.1,0,0,1,1.2-2,5.64,5.64,0,0,1,2.67-1.93c.51-.15.46-.47.47-.86a4.7,4.7,0,0,1,2-4,1.43,1.43,0,0,0,.59-1.27,3.3,3.3,0,0,1,2.53-3.28,2.22,2.22,0,0,1,2,0,1.74,1.74,0,0,0,1.77.16A3.17,3.17,0,0,1,59,35.09a9.9,9.9,0,0,0,0,2c.08,1,1.06,1.6,1.39,2.51a4.11,4.11,0,0,1,.29,2.59,1.5,1.5,0,0,1-.13.38,1.63,1.63,0,0,0-.55.9c0,.23-.17.43-.21.66l0,.32A.43.43,0,0,1,59.55,44.69Z"/><path class="cls-2" d="M46,54.51c-.82.57-1.26-.05-1.76-.55L26.73,36.5c-1.48-1.48-2.94-3-4.42-4.46-.48-.48-.94-.94-.46-1.67,1.13-.81,1.81,0,2.48.72q4.61,4.58,9.19,9.17c2.25,2.31,4.56,4.58,6.84,6.86a24,24,0,0,1,2.31,2.63,1.39,1.39,0,0,0,.84.85A6.77,6.77,0,0,1,46,53.15h0C46.35,53.61,46.47,54.07,46,54.51Z"/><path class="cls-3" d="M67.43,20.77a1.21,1.21,0,0,1,.91,1.08c0,.86,0,1.72,0,2.58a10.17,10.17,0,0,1-6.51,6.71A9.48,9.48,0,0,1,58.3,32c-.45,0-.95.18-1.3-.28a1.33,1.33,0,0,1,0-1.43l.1-1.07c.31-.75.43-1.57.77-2.3a11.11,11.11,0,0,1,6.75-6.46c1-.35,2-.58,2.84.28a11,11,0,0,1-2.5.15A11.26,11.26,0,0,0,67.43,20.77Z"/><path class="cls-3" d="M43.48,22.16a2.58,2.58,0,0,1,1.09-1.45,4.5,4.5,0,0,1,4.06.29,10.55,10.55,0,0,1,5.91,6.78,2.58,2.58,0,0,1,.32,1.48c0,.55,0,1.11,0,1.66a1,1,0,0,1-.9,1,11.35,11.35,0,0,1-10.49-8.39A1.28,1.28,0,0,1,43.48,22.16Z"/><path class="cls-4" d="M42.23,43.56c-.37.31-.64,1-1.26.32.1-1.27-.06-1.43-1.68-1.73h0a1.25,1.25,0,0,0-.84-.85h0a6.5,6.5,0,0,0-4.23-4.22h0a2.76,2.76,0,0,0-2.54-2.54h0a6.48,6.48,0,0,0-4.22-4.22h0c-.31-1-.55-2-1.85-2.27-.54-.11-.29-.65-.11-1,.51-.18.8-.09,1.28.35,2.1,1.91,4,4,6,6a2.23,2.23,0,0,0,.6.32,3,3,0,0,0,.85.85,1.79,1.79,0,0,0,.83.84,3.48,3.48,0,0,0,.86.85,46.65,46.65,0,0,0,4.22,4.21,3,3,0,0,0,.85.85C41.17,42.19,42.42,42.47,42.23,43.56Z"/><path class="cls-5" d="M33.38,40.46c.05-.29.16-.64.51-.39,1.71,1.21,3.6,2.2,5,3.82.84,1,2.21,1.17,3,2.21-.72,1.66-.65,1.83.83,2-.48.54-.19,1.08,0,1.62-2.93-2.55-5.5-5.46-8.3-8.15C34,41.26,33.52,41,33.38,40.46Z"/><path class="cls-6" d="M34.22,37.09a1.8,1.8,0,0,1,2,.56,12.31,12.31,0,0,0,2.1,2,1.08,1.08,0,0,1,.17,1.63A36.77,36.77,0,0,1,34.22,37.09Z"/><path class="cls-6" d="M27.46,30.33a1.8,1.8,0,0,1,2,.56,12.33,12.33,0,0,0,2.1,2,1.08,1.08,0,0,1,.17,1.63A37.38,37.38,0,0,1,27.46,30.33Z"/><path class="cls-2" d="M42.12,66.08c-.57-.64.12-1,.43-.92,1.43.25,3-.29,4.32.55a6.3,6.3,0,0,1-4,.17A.71.71,0,0,0,42.12,66.08Z"/><path class="cls-6" d="M25.5,27c.21.18-.42.7.47.73,1.09,0,1.75,1.4,1.5,2.57-.69-.65-1.38-1.29-2.06-1.95A.78.78,0,0,1,25.5,27Z"/><path class="cls-6" d="M31.69,34.56a2.05,2.05,0,0,1,2.54,2.54A13.57,13.57,0,0,1,31.69,34.56Z"/><path class="cls-6" d="M39.28,42.16c.85-.53,1.28-.21,1.95.52s-.61.75-.27,1.21l-.54-.33Z"/><path class="cls-7" d="M53.94,32a1.39,1.39,0,0,0,.57-1.32c0-.49-.19-1,.24-1.45.56.45.33,1.16.56,1.72C55.25,31.8,54.82,32.18,53.94,32Z"/><path class="cls-8" d="M68.32,24.44a2.34,2.34,0,0,1,0-2.58A2.34,2.34,0,0,1,68.32,24.44Z"/><path class="cls-9" d="M27.15,57.8q0,2.07,0,4.14A4.47,4.47,0,0,1,27.15,57.8Z"/><path class="cls-10" d="M39.49,65.75c.21.1.72.12.4.47s-2.29,0-2.55-.62l.38-.14Z"/><path class="cls-11" d="M48.63,21a8.21,8.21,0,0,0-4.06-.29A3.31,3.31,0,0,1,48.63,21Z"/><path class="cls-12" d="M55.31,30.93c-.4-.5-.3-1.17-.56-1.72l-.21-1.42A4.26,4.26,0,0,1,55.31,30.93Z"/><path class="cls-13" d="M59,37.11a1.52,1.52,0,0,1,0-2A2.15,2.15,0,0,1,59,37.11Z"/><path class="cls-14" d="M52.81,32.83l-2,0A1.14,1.14,0,0,1,52.81,32.83Z"/><path class="cls-15" d="M57.84,26.94a5.13,5.13,0,0,1-.77,2.3A3,3,0,0,1,57.84,26.94Z"/><path class="cls-16" d="M57.06,49.75c.82.47.81.94,0,1.42Z"/><path class="cls-1" d="M57.88,43.28l.51-.41,0,1.84A2.08,2.08,0,0,1,57.88,43.28Z"/><path class="cls-17" d="M43.48,22.16l0,1.42C42.66,23.1,42.64,22.62,43.48,22.16Z"/><path class="cls-18" d="M46,43.81c.36-.8,1.16-.21,1.67-.54q.15.08.11.18t-.08.11C47.24,44,46.62,43.78,46,43.81Z"/><path class="cls-19" d="M57,30.32l0,1.43C56.41,31.28,56.11,30.81,57,30.32Z"/><path class="cls-6" d="M38.44,41.31c1-.39,1.23-.1.84.85A1.55,1.55,0,0,1,38.44,41.31Z"/><path class="cls-20" d="M53.7,53.7h1c-.16-.11-.56,1-1.1.21A.19.19,0,0,1,53.7,53.7Z"/><path class="cls-21" d="M50.22,36.82c-.66-.49-.67-1,0-1.42Z"/><path class="cls-8" d="M43.52,47.5c-.86-.32,0-.94-.23-1.37.29-.07.18.21.27.31C43.63,46.8,43.79,47.16,43.52,47.5Z"/><path class="cls-22" d="M28.34,59.83l-.09.54h-.11V58.76h.07l.14.91A.13.13,0,0,1,28.34,59.83Z"/><path class="cls-14" d="M57,37.36,57,38.49C56.54,38.14,56,37.78,57,37.36Z"/><path class="cls-23" d="M47.75,43.56l0-.29.08-.85C48.78,42.84,48.22,43.2,47.75,43.56Z"/><path class="cls-24" d="M57.92,39.25c.42.19.76.43.72,1C58.11,40.1,58,39.67,57.92,39.25Z"/><path class="cls-25" d="M50.31,37.95v-.88c.22,0,.43.11.46.38S50.6,37.9,50.31,37.95Z"/><path class="cls-26" d="M35.9,36.26a1,1,0,0,1-.86-.85A1.35,1.35,0,0,1,35.9,36.26Z"/><path class="cls-27" d="M34.22,34.57a1.05,1.05,0,0,1-.85-.85A1.35,1.35,0,0,1,34.22,34.57Z"/><path class="cls-27" d="M41,41.33a1.05,1.05,0,0,1-.85-.85A1.35,1.35,0,0,1,41,41.33Z"/><path class="cls-26" d="M28.3,64.15c.54,0,.75.35.89.78A1.54,1.54,0,0,1,28.3,64.15Z"/><path class="cls-28" d="M55.92,54.87c-.75.55-.67,1.63-1.39,2.21C54.92,56.3,54.49,55,55.92,54.87Z"/><path class="cls-29" d="M34.2,64.89H32v-.12H34.2Z"/><path class="cls-13" d="M43.58,64.74h1.86v.13H43.56Z"/><path class="cls-8" d="M31.68,53.68h1.92c-.65.2-1.3.53-1.92,0Z"/><path class="cls-30" d="M58.7,49.48a5.69,5.69,0,0,1,0,2.23A2.2,2.2,0,0,1,58.7,49.48Z"/><path class="cls-31" d="M59.55,44.69l.24-.21c0,.63,0,1.25,0,2.12A4.74,4.74,0,0,1,59.55,44.69Z"/><path class="cls-1" d="M59.67,40.51a1.84,1.84,0,0,1,.05,1.4C59.4,41.4,59.65,40.94,59.67,40.51Z"/><path class="cls-1" d="M58.92,44.08c-.24-.45-.23-.68-.08-.88s.31-.1.31,0A3.52,3.52,0,0,1,58.92,44.08Z"/><path class="cls-1" d="M60.35,42.69a.91.91,0,0,1-.51.84C60,43.25,59.42,42.51,60.35,42.69Z"/><path class="cls-32" d="M65.45,26c-1.26,2.2-3.32,3.24-5.65,3.89-.9.26-1,0-.78-.86a9.6,9.6,0,0,1,5.34-6.54c.68-.32,1.43-1,2.16-.23s.22,1.64-.22,2.41C66,25.1,65.86,25.66,65.45,26Z"/><path class="cls-33" d="M67.43,20.77c-.89.55-1.84.15-2.77,0h2.77Z"/><path class="cls-34" d="M65.45,26a1.84,1.84,0,0,1,.85-1.32A1.47,1.47,0,0,1,65.45,26Z"/><path class="cls-35" d="M45.25,23.56c0-1.52.5-1.93,1.83-1.33a9.83,9.83,0,0,1,6,7c.21,1-.29.8-.82.66A9.41,9.41,0,0,1,46,25.26C45.62,24.77,45.62,24.08,45.25,23.56Z"/><path class="cls-36" d="M45.25,23.56c.6.41.63,1.09.8,1.7A2.11,2.11,0,0,1,45.25,23.56Z"/><rect class="cls-37" width="88" height="88"/></g></g></svg>